<svg version="1.2" baseProfile="tiny" xmlns="http://www.w3.org/2000/svg" xmlns:xlink="http://www.w3.org/1999/xlink" x="0px" y="0px" width="34px" height="34px" viewBox="0 0 34 34">
    <path class="i1" fill="#ffffff" fill-opacity="0.4" d="M8.5,35.5V22.667c0-3.4,2.766-6.167,6.167-6.167h18.667c3.4,0,6.166,2.767,6.166,6.167V35.5H8.5z"></path>
    <path class="i0" stroke="#ffffff" fill="none" stroke-opacity="1" d="M39,4v4.293l-3.646-3.646l-0.707,0.707L37.293,8H10.707l2.646-2.646l-0.707-0.707L9,8.293V4H8v18.667V36h1 h30h1V22.667V4H39z M39,35H9V22.667C9,19.542,11.542,17,14.667,17h18.667C36.458,17,39,19.542,39,22.667V35z M33.334,16H14.667 C12.27,16,10.175,17.269,9,19.167V8.707l3.646,3.646l0.707-0.707L10.707,9h26.586l-2.646,2.646l0.707,0.707L39,8.707v10.46 C37.825,17.269,35.73,16,33.334,16z"></path>
</svg>
