<?xml version="1.0" encoding="UTF-8" standalone="no"?>
<!DOCTYPE svg PUBLIC "-//W3C//DTD SVG 1.1//EN" "http://www.w3.org/Graphics/SVG/1.1/DTD/svg11.dtd">
<svg width="34px" height="34px" version="1.1" xmlns="http://www.w3.org/2000/svg" xmlns:xlink="http://www.w3.org/1999/xlink" xml:space="preserve" xmlns:serif="http://www.serif.com/" style="fill-rule:evenodd;clip-rule:evenodd;stroke-linejoin:round;stroke-miterlimit:1.41421;">
    <rect id="align-text-off" x="0" y="0" width="34" height="33.971" style="fill:none;"/>
    <path id="Align-Center-Icon" serif:id="Align Center Icon" d="M27.354,9.485L6.354,9.485C5.526,9.485 4.854,8.814 4.854,7.986C4.854,7.157 5.526,6.485 6.354,6.485L27.354,6.485C28.182,6.485 28.854,7.157 28.854,7.986C28.854,8.814 28.182,9.485 27.354,9.485ZM9.354,15.485C8.526,15.485 7.854,14.814 7.854,13.985C7.854,13.157 8.526,12.486 9.354,12.486L24.354,12.486C25.183,12.486 25.854,13.157 25.854,13.985C25.854,14.814 25.183,15.485 24.354,15.485L9.354,15.485ZM6.354,18.486L27.354,18.486C28.182,18.486 28.854,19.157 28.854,19.986C28.854,20.814 28.182,21.486 27.354,21.486L6.354,21.486C5.526,21.486 4.854,20.814 4.854,19.986C4.854,19.157 5.526,18.486 6.354,18.486ZM12.354,24.486L21.354,24.486C22.182,24.486 22.854,25.157 22.854,25.985C22.854,26.814 22.182,27.485 21.354,27.485L12.354,27.485C11.526,27.485 10.854,26.814 10.854,25.985C10.854,25.157 11.526,24.486 12.354,24.486Z" style="fill:#fff;"/>
</svg>
