<?xml version="1.0" encoding="UTF-8" standalone="no"?>
<!DOCTYPE svg PUBLIC "-//W3C//DTD SVG 1.1//EN" "http://www.w3.org/Graphics/SVG/1.1/DTD/svg11.dtd">
<svg width="64px" height="66px" version="1.1" xmlns="http://www.w3.org/2000/svg" xmlns:xlink="http://www.w3.org/1999/xlink" xml:space="preserve" xmlns:serif="http://www.serif.com/" style="fill-rule:evenodd;clip-rule:evenodd;stroke-linejoin:round;stroke-miterlimit:1.41421;">
    <g id="barOff">
        <path d="M64,65.803L0,65.803L0,34.76L64,34.76L64,65.803ZM2,36.76L2,63.803L62,63.803L62,36.76L2,36.76Z" style="fill:#fff;"/>
        <rect x="3.3" y="37.903" width="43.416" height="25.072" style="fill:#fff;fill-opacity:0.45;"/>
        <rect x="33.862" y="5.043" width="8.285" height="2" style="fill:#fff;"/>
        <path d="M31.463,10.283L8.438,10.283L8.438,1.803L31.463,1.803L31.463,10.283ZM10.41,3.775L10.41,8.312L29.492,8.312L29.492,3.775L10.41,3.775Z" style="fill:#fff;"/>
        <path d="M31.463,21.241L8.438,21.241L8.438,12.76L31.463,12.76L31.463,21.241ZM10.41,14.732L10.41,19.269L29.492,19.269L29.492,14.732L10.41,14.732Z" style="fill:#fff;"/>
        <path d="M31.463,32.241L8.438,32.241L8.438,23.76L31.463,23.76L31.463,32.241ZM10.41,25.732L10.41,30.269L29.492,30.269L29.492,25.732L10.41,25.732Z" style="fill:#fff;"/>
        <rect x="37.005" y="0.803" width="2" height="32.438" style="fill:#fff;"/>
        <g>
            <path d="M47.098,10.27L45.099,10.297L44.991,2.297L46.991,2.27L47.098,10.27Z" style="fill:#fff;"/>
            <path d="M60.184,2.544L60.265,2.548L60.345,2.554L60.424,2.562L60.503,2.573L60.582,2.586L60.659,2.602L60.736,2.619L60.813,2.639L60.888,2.661L60.963,2.685L61.037,2.711L61.111,2.74L61.183,2.77L61.255,2.803L61.326,2.837L61.396,2.874L61.465,2.912L61.533,2.953L61.601,2.995L61.667,3.039L61.732,3.085L61.797,3.133L61.86,3.182L61.922,3.234L61.983,3.287L62.043,3.341L62.102,3.398L62.159,3.456L62.216,3.515L62.271,3.576L62.325,3.639L62.378,3.703L62.429,3.769L62.479,3.836L62.528,3.905L62.575,3.975L62.621,4.046L62.666,4.119L62.709,4.193L62.75,4.268L62.791,4.345L62.829,4.422L62.866,4.501L62.902,4.581L62.936,4.662L62.968,4.745L62.999,4.828L63.028,4.913L63.055,4.998L63.081,5.084L63.104,5.172L63.127,5.26L63.147,5.349L63.165,5.439L63.182,5.53L63.197,5.622L63.21,5.714L63.221,5.807L63.23,5.901L63.237,5.996L63.242,6.091L63.245,6.187L63.246,6.283L63.245,6.38L63.242,6.476L63.237,6.571L63.23,6.666L63.221,6.76L63.21,6.853L63.197,6.945L63.182,7.037L63.165,7.128L63.147,7.218L63.127,7.307L63.104,7.395L63.081,7.483L63.055,7.569L63.028,7.654L62.999,7.739L62.968,7.822L62.936,7.904L62.902,7.986L62.866,8.066L62.829,8.145L62.791,8.222L62.75,8.299L62.709,8.374L62.666,8.448L62.621,8.521L62.575,8.592L62.528,8.662L62.479,8.731L62.429,8.798L62.378,8.864L62.325,8.928L62.271,8.991L62.216,9.052L62.159,9.111L62.102,9.169L62.043,9.226L61.983,9.28L61.922,9.333L61.86,9.385L61.797,9.434L61.732,9.482L61.667,9.528L61.601,9.572L61.533,9.614L61.465,9.655L61.396,9.693L61.326,9.73L61.255,9.764L61.183,9.797L61.111,9.827L61.037,9.856L60.963,9.882L60.888,9.906L60.813,9.928L60.736,9.948L60.659,9.965L60.582,9.981L60.503,9.994L60.424,10.005L60.345,10.013L60.265,10.019L60.184,10.023L60.103,10.024L60.022,10.023L59.942,10.019L59.862,10.013L59.782,10.005L59.703,9.994L59.625,9.981L59.547,9.965L59.47,9.948L59.394,9.928L59.318,9.906L59.243,9.882L59.169,9.856L59.096,9.827L59.023,9.797L58.952,9.764L58.881,9.73L58.811,9.693L58.741,9.655L58.673,9.614L58.606,9.572L58.54,9.528L58.474,9.482L58.41,9.434L58.347,9.385L58.285,9.333L58.224,9.28L58.164,9.226L58.105,9.169L58.047,9.111L57.991,9.052L57.936,8.991L57.882,8.928L57.829,8.864L57.778,8.798L57.728,8.731L57.679,8.662L57.631,8.592L57.585,8.521L57.541,8.448L57.498,8.374L57.456,8.299L57.416,8.222L57.377,8.145L57.34,8.066L57.305,7.986L57.271,7.904L57.239,7.822L57.208,7.739L57.179,7.654L57.152,7.569L57.126,7.483L57.102,7.395L57.08,7.307L57.06,7.218L57.041,7.128L57.025,7.037L57.01,6.945L56.997,6.853L56.986,6.76L56.977,6.666L56.97,6.571L56.965,6.476L56.962,6.38L56.961,6.283L56.962,6.187L56.965,6.091L56.97,5.996L56.977,5.901L56.986,5.807L56.997,5.714L57.01,5.622L57.025,5.53L57.041,5.439L57.06,5.349L57.08,5.26L57.102,5.172L57.126,5.084L57.152,4.998L57.179,4.913L57.208,4.828L57.239,4.745L57.271,4.662L57.305,4.581L57.34,4.501L57.377,4.422L57.416,4.345L57.456,4.268L57.498,4.193L57.541,4.119L57.585,4.046L57.631,3.975L57.679,3.905L57.728,3.836L57.778,3.769L57.829,3.703L57.882,3.639L57.936,3.576L57.991,3.515L58.047,3.456L58.105,3.398L58.164,3.341L58.224,3.287L58.285,3.234L58.347,3.182L58.41,3.133L58.474,3.085L58.54,3.039L58.606,2.995L58.673,2.953L58.741,2.912L58.811,2.874L58.881,2.837L58.952,2.803L59.023,2.77L59.096,2.74L59.169,2.711L59.243,2.685L59.318,2.661L59.394,2.639L59.47,2.619L59.547,2.602L59.625,2.586L59.703,2.573L59.782,2.562L59.862,2.554L59.942,2.548L60.022,2.544L60.103,2.543L60.184,2.544ZM60.083,4.544L60.062,4.545L60.042,4.546L60.022,4.548L60.003,4.551L59.983,4.554L59.964,4.558L59.944,4.563L59.925,4.568L59.904,4.573L59.884,4.58L59.864,4.587L59.844,4.595L59.823,4.604L59.802,4.613L59.78,4.624L59.759,4.635L59.737,4.647L59.715,4.66L59.693,4.674L59.669,4.69L59.647,4.706L59.624,4.722L59.6,4.741L59.577,4.76L59.554,4.781L59.53,4.802L59.507,4.825L59.483,4.848L59.459,4.873L59.436,4.899L59.413,4.925L59.39,4.954L59.367,4.983L59.345,5.013L59.322,5.045L59.3,5.077L59.279,5.111L59.257,5.146L59.237,5.18L59.217,5.216L59.197,5.254L59.178,5.293L59.159,5.333L59.142,5.372L59.125,5.413L59.108,5.456L59.092,5.498L59.077,5.542L59.063,5.587L59.05,5.632L59.037,5.678L59.026,5.724L59.015,5.772L59.005,5.82L58.996,5.869L58.988,5.919L58.981,5.969L58.975,6.02L58.97,6.071L58.966,6.124L58.963,6.177L58.961,6.23L58.961,6.283L58.961,6.337L58.963,6.39L58.966,6.443L58.97,6.496L58.975,6.547L58.981,6.598L58.988,6.648L58.996,6.698L59.005,6.747L59.015,6.795L59.026,6.842L59.037,6.889L59.05,6.935L59.063,6.98L59.077,7.025L59.092,7.069L59.108,7.111L59.125,7.154L59.142,7.195L59.159,7.234L59.178,7.274L59.197,7.313L59.217,7.351L59.237,7.387L59.257,7.421L59.279,7.456L59.3,7.49L59.322,7.522L59.345,7.554L59.367,7.584L59.39,7.613L59.413,7.641L59.436,7.668L59.46,7.694L59.483,7.719L59.507,7.742L59.53,7.765L59.554,7.786L59.577,7.807L59.6,7.826L59.624,7.845L59.647,7.861L59.669,7.877L59.693,7.893L59.715,7.907L59.737,7.92L59.759,7.932L59.78,7.943L59.802,7.954L59.823,7.963L59.844,7.972L59.864,7.98L59.884,7.987L59.905,7.994L59.924,7.999L59.944,8.004L59.964,8.009L59.983,8.013L60.003,8.016L60.022,8.019L60.042,8.021L60.062,8.022L60.083,8.023L60.103,8.024L60.124,8.023L60.144,8.022L60.164,8.021L60.184,8.019L60.204,8.016L60.223,8.013L60.243,8.009L60.263,8.005L60.282,7.999L60.302,7.994L60.322,7.987L60.342,7.98L60.363,7.972L60.384,7.963L60.405,7.954L60.426,7.943L60.448,7.932L60.47,7.92L60.492,7.907L60.515,7.893L60.537,7.878L60.56,7.862L60.583,7.844L60.606,7.826L60.629,7.807L60.653,7.786L60.677,7.765L60.7,7.742L60.724,7.719L60.747,7.694L60.77,7.668L60.794,7.641L60.817,7.613L60.839,7.584L60.862,7.553L60.884,7.523L60.906,7.49L60.928,7.456L60.949,7.422L60.969,7.387L60.99,7.35L61.01,7.312L61.028,7.275L61.047,7.235L61.065,7.194L61.082,7.154L61.098,7.112L61.114,7.069L61.129,7.025L61.144,6.98L61.157,6.935L61.169,6.889L61.181,6.842L61.192,6.794L61.202,6.746L61.211,6.698L61.219,6.649L61.226,6.598L61.232,6.547L61.237,6.496L61.241,6.443L61.243,6.391L61.245,6.337L61.246,6.283L61.245,6.23L61.243,6.176L61.241,6.124L61.237,6.071L61.232,6.02L61.226,5.969L61.219,5.918L61.211,5.869L61.202,5.821L61.192,5.773L61.181,5.724L61.169,5.678L61.157,5.632L61.144,5.587L61.129,5.542L61.114,5.498L61.098,5.455L61.082,5.413L61.065,5.373L61.047,5.332L61.028,5.292L61.01,5.255L60.99,5.217L60.969,5.18L60.949,5.145L60.928,5.111L60.906,5.077L60.884,5.044L60.862,5.014L60.839,4.983L60.817,4.954L60.794,4.926L60.77,4.899L60.747,4.873L60.724,4.848L60.7,4.825L60.677,4.802L60.653,4.781L60.629,4.76L60.606,4.741L60.583,4.723L60.56,4.705L60.537,4.689L60.515,4.674L60.492,4.66L60.47,4.647L60.448,4.635L60.426,4.624L60.405,4.613L60.384,4.604L60.363,4.595L60.342,4.587L60.322,4.58L60.302,4.573L60.282,4.568L60.263,4.562L60.243,4.558L60.223,4.554L60.204,4.551L60.184,4.548L60.164,4.546L60.144,4.545L60.124,4.544L60.103,4.543L60.083,4.544Z" style="fill:#fff;"/>
            <path d="M52.184,2.804L52.265,2.808L52.345,2.814L52.424,2.822L52.503,2.833L52.582,2.846L52.659,2.861L52.736,2.879L52.813,2.899L52.888,2.921L52.963,2.945L53.037,2.971L53.111,2.999L53.183,3.03L53.255,3.062L53.326,3.097L53.396,3.133L53.465,3.172L53.533,3.212L53.601,3.254L53.667,3.299L53.732,3.345L53.797,3.392L53.86,3.442L53.922,3.493L53.983,3.546L54.043,3.601L54.102,3.657L54.159,3.715L54.216,3.775L54.271,3.836L54.325,3.899L54.378,3.963L54.429,4.029L54.479,4.096L54.528,4.164L54.575,4.234L54.621,4.306L54.666,4.378L54.709,4.452L54.75,4.528L54.791,4.604L54.829,4.682L54.866,4.761L54.902,4.841L54.936,4.922L54.968,5.004L54.999,5.088L55.028,5.172L55.055,5.258L55.081,5.344L55.104,5.431L55.127,5.52L55.147,5.609L55.165,5.699L55.182,5.79L55.197,5.881L55.21,5.974L55.221,6.067L55.23,6.161L55.237,6.256L55.242,6.351L55.245,6.447L55.246,6.543L55.245,6.64L55.242,6.735L55.237,6.831L55.23,6.925L55.221,7.019L55.21,7.112L55.197,7.205L55.182,7.297L55.165,7.387L55.147,7.477L55.127,7.567L55.104,7.655L55.081,7.742L55.055,7.829L55.028,7.914L54.999,7.998L54.968,8.082L54.936,8.164L54.902,8.245L54.866,8.325L54.829,8.404L54.791,8.482L54.75,8.559L54.709,8.634L54.666,8.708L54.621,8.78L54.575,8.852L54.528,8.922L54.479,8.99L54.429,9.058L54.378,9.123L54.325,9.187L54.271,9.25L54.216,9.311L54.159,9.371L54.102,9.429L54.043,9.485L53.983,9.54L53.922,9.593L53.86,9.644L53.797,9.694L53.732,9.742L53.667,9.788L53.601,9.832L53.533,9.874L53.465,9.914L53.396,9.953L53.326,9.989L53.255,10.024L53.183,10.056L53.111,10.087L53.037,10.115L52.963,10.141L52.888,10.166L52.813,10.188L52.736,10.207L52.659,10.225L52.582,10.24L52.503,10.253L52.424,10.264L52.345,10.273L52.265,10.279L52.184,10.282L52.103,10.283L52.022,10.282L51.942,10.279L51.862,10.273L51.782,10.264L51.703,10.253L51.625,10.24L51.547,10.225L51.47,10.207L51.394,10.188L51.318,10.166L51.243,10.141L51.169,10.115L51.096,10.087L51.023,10.056L50.952,10.024L50.881,9.989L50.811,9.953L50.741,9.914L50.673,9.874L50.606,9.832L50.54,9.788L50.474,9.742L50.41,9.694L50.347,9.644L50.285,9.593L50.224,9.54L50.164,9.485L50.105,9.429L50.047,9.371L49.991,9.311L49.936,9.25L49.882,9.187L49.829,9.123L49.778,9.058L49.728,8.99L49.679,8.922L49.631,8.852L49.585,8.78L49.541,8.708L49.498,8.634L49.456,8.559L49.416,8.482L49.377,8.404L49.34,8.325L49.305,8.245L49.271,8.164L49.239,8.082L49.208,7.998L49.179,7.914L49.152,7.829L49.126,7.742L49.102,7.655L49.08,7.567L49.06,7.477L49.041,7.387L49.025,7.297L49.01,7.205L48.997,7.112L48.986,7.019L48.977,6.925L48.97,6.831L48.965,6.735L48.962,6.64L48.961,6.543L48.962,6.447L48.965,6.351L48.97,6.256L48.977,6.161L48.986,6.067L48.997,5.974L49.01,5.881L49.025,5.79L49.041,5.699L49.06,5.609L49.08,5.52L49.102,5.431L49.126,5.344L49.152,5.258L49.179,5.172L49.208,5.088L49.239,5.004L49.271,4.922L49.305,4.841L49.34,4.761L49.377,4.682L49.416,4.604L49.456,4.528L49.498,4.452L49.541,4.378L49.585,4.306L49.631,4.234L49.679,4.164L49.728,4.096L49.778,4.029L49.829,3.963L49.882,3.899L49.936,3.836L49.991,3.775L50.047,3.715L50.105,3.657L50.164,3.601L50.224,3.546L50.285,3.493L50.347,3.442L50.41,3.392L50.474,3.345L50.54,3.299L50.606,3.254L50.673,3.212L50.741,3.172L50.811,3.133L50.881,3.097L50.952,3.062L51.023,3.03L51.096,2.999L51.169,2.971L51.243,2.945L51.318,2.921L51.394,2.899L51.47,2.879L51.547,2.861L51.625,2.846L51.703,2.833L51.782,2.822L51.862,2.814L51.942,2.808L52.022,2.804L52.103,2.803L52.184,2.804ZM52.083,4.803L52.062,4.804L52.042,4.806L52.022,4.808L52.003,4.811L51.983,4.814L51.964,4.818L51.944,4.822L51.924,4.827L51.904,4.833L51.884,4.839L51.864,4.847L51.844,4.855L51.823,4.863L51.802,4.873L51.781,4.883L51.759,4.895L51.737,4.907L51.715,4.92L51.692,4.934L51.67,4.949L51.647,4.965L51.623,4.982L51.6,5.001L51.578,5.019L51.554,5.04L51.53,5.062L51.507,5.084L51.483,5.108L51.459,5.133L51.436,5.158L51.413,5.185L51.39,5.214L51.367,5.243L51.344,5.273L51.323,5.304L51.3,5.337L51.279,5.37L51.258,5.404L51.237,5.44L51.217,5.477L51.197,5.515L51.178,5.552L51.16,5.591L51.142,5.632L51.125,5.673L51.108,5.715L51.092,5.758L51.077,5.802L51.063,5.846L51.05,5.892L51.037,5.937L51.026,5.984L51.015,6.032L51.005,6.081L50.996,6.129L50.988,6.178L50.981,6.229L50.975,6.28L50.97,6.331L50.966,6.383L50.963,6.436L50.961,6.489L50.961,6.543L50.961,6.597L50.963,6.65L50.966,6.703L50.97,6.755L50.975,6.806L50.981,6.858L50.988,6.908L50.996,6.957L51.005,7.006L51.015,7.054L51.026,7.102L51.037,7.149L51.05,7.195L51.063,7.24L51.077,7.285L51.092,7.328L51.108,7.372L51.125,7.413L51.142,7.454L51.16,7.495L51.178,7.534L51.197,7.572L51.217,7.609L51.237,7.646L51.258,7.682L51.279,7.716L51.3,7.75L51.323,7.782L51.344,7.813L51.367,7.843L51.39,7.873L51.413,7.901L51.436,7.928L51.459,7.954L51.483,7.978L51.507,8.002L51.53,8.025L51.554,8.046L51.578,8.067L51.6,8.086L51.623,8.104L51.647,8.121L51.67,8.137L51.692,8.152L51.715,8.166L51.737,8.18L51.759,8.192L51.781,8.203L51.802,8.213L51.823,8.223L51.844,8.232L51.864,8.24L51.884,8.247L51.904,8.253L51.924,8.259L51.944,8.264L51.964,8.269L51.983,8.272L52.003,8.276L52.022,8.278L52.042,8.281L52.062,8.282L52.083,8.283L52.103,8.283L52.124,8.283L52.144,8.282L52.164,8.281L52.184,8.278L52.204,8.276L52.223,8.272L52.243,8.269L52.263,8.264L52.282,8.259L52.302,8.253L52.322,8.247L52.343,8.24L52.363,8.232L52.384,8.223L52.405,8.213L52.426,8.203L52.448,8.192L52.47,8.18L52.492,8.166L52.514,8.152L52.537,8.137L52.56,8.121L52.583,8.104L52.606,8.086L52.63,8.066L52.653,8.046L52.677,8.025L52.7,8.002L52.723,7.979L52.747,7.954L52.771,7.927L52.793,7.901L52.817,7.873L52.839,7.844L52.862,7.814L52.885,7.782L52.907,7.749L52.928,7.716L52.949,7.682L52.969,7.646L52.989,7.61L53.009,7.573L53.029,7.534L53.047,7.494L53.065,7.454L53.082,7.413L53.098,7.372L53.114,7.328L53.129,7.285L53.144,7.24L53.157,7.195L53.169,7.149L53.181,7.102L53.192,7.055L53.202,7.007L53.211,6.957L53.219,6.907L53.226,6.858L53.232,6.806L53.237,6.754L53.241,6.703L53.243,6.65L53.245,6.597L53.246,6.543L53.245,6.489L53.243,6.436L53.241,6.383L53.237,6.332L53.232,6.28L53.226,6.229L53.219,6.179L53.211,6.129L53.202,6.08L53.192,6.031L53.181,5.984L53.169,5.937L53.157,5.892L53.144,5.846L53.129,5.802L53.114,5.758L53.098,5.715L53.082,5.673L53.065,5.632L53.047,5.592L53.029,5.553L53.009,5.514L52.989,5.476L52.969,5.44L52.949,5.404L52.928,5.37L52.907,5.337L52.885,5.305L52.862,5.273L52.839,5.243L52.817,5.214L52.793,5.185L52.771,5.159L52.747,5.133L52.723,5.107L52.7,5.084L52.677,5.062L52.653,5.04L52.63,5.02L52.606,5.001L52.583,4.982L52.56,4.965L52.537,4.949L52.514,4.934L52.492,4.92L52.47,4.907L52.448,4.894L52.426,4.883L52.405,4.873L52.384,4.863L52.363,4.855L52.343,4.847L52.322,4.839L52.302,4.833L52.282,4.827L52.263,4.822L52.243,4.818L52.223,4.814L52.204,4.811L52.184,4.808L52.164,4.806L52.144,4.804L52.124,4.803L52.103,4.803L52.083,4.803Z" style="fill:#fff;"/>
        </g>
    </g>
</svg>
