<?xml version="1.0" encoding="UTF-8" standalone="no"?>
<!DOCTYPE svg PUBLIC "-//W3C//DTD SVG 1.1//EN" "http://www.w3.org/Graphics/SVG/1.1/DTD/svg11.dtd">
<svg width="64px" height="65px" version="1.1" xmlns="http://www.w3.org/2000/svg" xmlns:xlink="http://www.w3.org/1999/xlink" xml:space="preserve" xmlns:serif="http://www.serif.com/" style="fill-rule:evenodd;clip-rule:evenodd;stroke-linejoin:round;stroke-miterlimit:1.41421;">
    <g id="barOn">
        <path d="M35.36,35.717L4.028,35.717L4.028,0.326L35.36,0.326L35.36,35.717ZM6.028,2.326L6.028,33.717L33.36,33.717L33.36,2.326L6.028,2.326Z" style="fill:#f90b3b;"/>
        <path d="M64,64.803L0,64.803L0,33.76L64,33.76L64,64.803ZM2,35.76L2,62.803L62,62.803L62,35.76L2,35.76Z" style="fill:#00a0ff;"/>
        <rect x="3.3" y="36.903" width="43.416" height="25.072" style="fill:#00ff03;fill-opacity:0.45;"/>
        <rect x="36.182" y="4.043" width="5" height="2" style="fill:#f03;"/>
        <path d="M47.098,9.27L45.099,9.297L44.991,1.297L46.991,1.27L47.098,9.27Z" style="fill:#f03;"/>
        <path d="M60.184,1.544L60.265,1.548L60.345,1.554L60.424,1.562L60.503,1.573L60.582,1.586L60.659,1.602L60.736,1.619L60.813,1.639L60.888,1.661L60.963,1.685L61.037,1.711L61.111,1.74L61.183,1.77L61.255,1.803L61.326,1.837L61.396,1.874L61.465,1.912L61.533,1.953L61.601,1.995L61.667,2.039L61.732,2.085L61.797,2.133L61.86,2.182L61.922,2.234L61.983,2.287L62.043,2.341L62.102,2.398L62.159,2.456L62.216,2.515L62.271,2.576L62.325,2.639L62.378,2.703L62.429,2.769L62.479,2.836L62.528,2.905L62.575,2.975L62.621,3.046L62.666,3.119L62.709,3.193L62.75,3.268L62.791,3.345L62.829,3.422L62.866,3.501L62.902,3.581L62.936,3.662L62.968,3.745L62.999,3.828L63.028,3.913L63.055,3.998L63.081,4.084L63.104,4.172L63.127,4.26L63.147,4.349L63.165,4.439L63.182,4.53L63.197,4.622L63.21,4.714L63.221,4.807L63.23,4.901L63.237,4.996L63.242,5.091L63.245,5.187L63.246,5.283L63.245,5.38L63.242,5.476L63.237,5.571L63.23,5.666L63.221,5.76L63.21,5.853L63.197,5.945L63.182,6.037L63.165,6.128L63.147,6.218L63.127,6.307L63.104,6.395L63.081,6.483L63.055,6.569L63.028,6.654L62.999,6.739L62.968,6.822L62.936,6.904L62.902,6.986L62.866,7.066L62.829,7.145L62.791,7.222L62.75,7.299L62.709,7.374L62.666,7.448L62.621,7.521L62.575,7.592L62.528,7.662L62.479,7.731L62.429,7.798L62.378,7.864L62.325,7.928L62.271,7.991L62.216,8.052L62.159,8.111L62.102,8.169L62.043,8.226L61.983,8.28L61.922,8.333L61.86,8.385L61.797,8.434L61.732,8.482L61.667,8.528L61.601,8.572L61.533,8.614L61.465,8.655L61.396,8.693L61.326,8.73L61.255,8.764L61.183,8.797L61.111,8.827L61.037,8.856L60.963,8.882L60.888,8.906L60.813,8.928L60.736,8.948L60.659,8.965L60.582,8.981L60.503,8.994L60.424,9.005L60.345,9.013L60.265,9.019L60.184,9.023L60.103,9.024L60.022,9.023L59.942,9.019L59.862,9.013L59.782,9.005L59.703,8.994L59.625,8.981L59.547,8.965L59.47,8.948L59.394,8.928L59.318,8.906L59.243,8.882L59.169,8.856L59.096,8.827L59.023,8.797L58.952,8.764L58.881,8.73L58.811,8.693L58.741,8.655L58.673,8.614L58.606,8.572L58.54,8.528L58.474,8.482L58.41,8.434L58.347,8.385L58.285,8.333L58.224,8.28L58.164,8.226L58.105,8.169L58.047,8.111L57.991,8.052L57.936,7.991L57.882,7.928L57.829,7.864L57.778,7.798L57.728,7.731L57.679,7.662L57.631,7.592L57.585,7.521L57.541,7.448L57.498,7.374L57.456,7.299L57.416,7.222L57.377,7.145L57.34,7.066L57.305,6.986L57.271,6.904L57.239,6.822L57.208,6.739L57.179,6.654L57.152,6.569L57.126,6.483L57.102,6.395L57.08,6.307L57.06,6.218L57.041,6.128L57.025,6.037L57.01,5.945L56.997,5.853L56.986,5.76L56.977,5.666L56.97,5.571L56.965,5.476L56.962,5.38L56.961,5.283L56.962,5.187L56.965,5.091L56.97,4.996L56.977,4.901L56.986,4.807L56.997,4.714L57.01,4.622L57.025,4.53L57.041,4.439L57.06,4.349L57.08,4.26L57.102,4.172L57.126,4.084L57.152,3.998L57.179,3.913L57.208,3.828L57.239,3.745L57.271,3.662L57.305,3.581L57.34,3.501L57.377,3.422L57.416,3.345L57.456,3.268L57.498,3.193L57.541,3.119L57.585,3.046L57.631,2.975L57.679,2.905L57.728,2.836L57.778,2.769L57.829,2.703L57.882,2.639L57.936,2.576L57.991,2.515L58.047,2.456L58.105,2.398L58.164,2.341L58.224,2.287L58.285,2.234L58.347,2.182L58.41,2.133L58.474,2.085L58.54,2.039L58.606,1.995L58.673,1.953L58.741,1.912L58.811,1.874L58.881,1.837L58.952,1.803L59.023,1.77L59.096,1.74L59.169,1.711L59.243,1.685L59.318,1.661L59.394,1.639L59.47,1.619L59.547,1.602L59.625,1.586L59.703,1.573L59.782,1.562L59.862,1.554L59.942,1.548L60.022,1.544L60.103,1.543L60.184,1.544ZM60.083,3.544L60.062,3.545L60.042,3.546L60.022,3.548L60.003,3.551L59.983,3.554L59.964,3.558L59.944,3.563L59.924,3.568L59.905,3.573L59.884,3.58L59.864,3.587L59.844,3.595L59.823,3.604L59.802,3.613L59.78,3.624L59.759,3.635L59.737,3.647L59.715,3.66L59.693,3.674L59.669,3.69L59.647,3.706L59.624,3.722L59.6,3.741L59.577,3.76L59.554,3.781L59.53,3.802L59.507,3.825L59.483,3.848L59.459,3.873L59.436,3.899L59.413,3.925L59.39,3.954L59.367,3.983L59.345,4.013L59.322,4.045L59.3,4.077L59.279,4.111L59.257,4.145L59.237,4.18L59.217,4.216L59.197,4.254L59.178,4.293L59.159,4.333L59.142,4.372L59.125,4.413L59.108,4.456L59.092,4.498L59.077,4.542L59.063,4.587L59.05,4.632L59.037,4.678L59.026,4.724L59.015,4.772L59.005,4.82L58.996,4.869L58.988,4.919L58.981,4.969L58.975,5.02L58.97,5.071L58.966,5.124L58.963,5.177L58.961,5.23L58.961,5.283L58.961,5.337L58.963,5.39L58.966,5.443L58.97,5.496L58.975,5.547L58.981,5.598L58.988,5.648L58.996,5.698L59.005,5.747L59.015,5.795L59.026,5.842L59.037,5.889L59.05,5.935L59.063,5.98L59.077,6.025L59.092,6.069L59.108,6.111L59.125,6.154L59.142,6.195L59.159,6.234L59.178,6.274L59.197,6.313L59.217,6.351L59.237,6.387L59.257,6.421L59.279,6.456L59.3,6.49L59.322,6.522L59.345,6.554L59.367,6.584L59.39,6.613L59.413,6.641L59.436,6.668L59.459,6.694L59.483,6.719L59.507,6.742L59.53,6.765L59.554,6.786L59.577,6.807L59.6,6.826L59.624,6.845L59.647,6.861L59.669,6.877L59.693,6.893L59.715,6.907L59.737,6.92L59.759,6.932L59.78,6.943L59.802,6.954L59.823,6.963L59.844,6.972L59.864,6.98L59.884,6.987L59.905,6.994L59.924,6.999L59.944,7.004L59.964,7.009L59.983,7.013L60.003,7.016L60.022,7.019L60.042,7.021L60.062,7.022L60.083,7.023L60.103,7.024L60.124,7.023L60.144,7.022L60.164,7.021L60.184,7.019L60.204,7.016L60.223,7.013L60.243,7.009L60.263,7.004L60.282,6.999L60.302,6.994L60.322,6.987L60.342,6.98L60.363,6.972L60.384,6.963L60.405,6.954L60.426,6.943L60.448,6.932L60.47,6.92L60.492,6.907L60.515,6.892L60.537,6.878L60.56,6.862L60.583,6.844L60.606,6.826L60.629,6.807L60.653,6.786L60.677,6.765L60.7,6.742L60.724,6.719L60.747,6.694L60.77,6.668L60.794,6.641L60.817,6.613L60.839,6.584L60.862,6.553L60.884,6.523L60.906,6.49L60.928,6.456L60.949,6.422L60.969,6.387L60.99,6.35L61.01,6.312L61.028,6.275L61.047,6.235L61.065,6.194L61.082,6.154L61.098,6.112L61.114,6.069L61.129,6.025L61.144,5.98L61.157,5.935L61.169,5.889L61.181,5.842L61.192,5.794L61.202,5.746L61.211,5.698L61.219,5.649L61.226,5.598L61.232,5.547L61.237,5.496L61.241,5.443L61.243,5.391L61.245,5.337L61.246,5.283L61.245,5.23L61.243,5.176L61.241,5.124L61.237,5.071L61.232,5.02L61.226,4.969L61.219,4.918L61.211,4.869L61.202,4.821L61.192,4.773L61.181,4.724L61.169,4.678L61.157,4.632L61.144,4.587L61.129,4.542L61.114,4.498L61.098,4.455L61.082,4.413L61.065,4.373L61.047,4.332L61.028,4.292L61.01,4.255L60.99,4.217L60.969,4.18L60.949,4.145L60.928,4.111L60.906,4.077L60.884,4.044L60.862,4.014L60.839,3.983L60.817,3.954L60.794,3.926L60.77,3.899L60.747,3.873L60.724,3.848L60.7,3.825L60.677,3.802L60.653,3.781L60.629,3.76L60.606,3.741L60.583,3.723L60.56,3.705L60.537,3.689L60.515,3.674L60.492,3.66L60.47,3.647L60.448,3.635L60.426,3.623L60.405,3.613L60.384,3.604L60.363,3.595L60.342,3.587L60.322,3.58L60.302,3.573L60.282,3.568L60.263,3.562L60.243,3.558L60.223,3.554L60.204,3.551L60.184,3.548L60.164,3.546L60.144,3.545L60.124,3.544L60.103,3.543L60.083,3.544Z" style="fill:#f03;"/>
        <path d="M52.184,1.804L52.265,1.808L52.345,1.814L52.424,1.822L52.503,1.833L52.582,1.846L52.659,1.861L52.736,1.879L52.813,1.899L52.888,1.921L52.963,1.945L53.037,1.971L53.111,1.999L53.183,2.03L53.255,2.062L53.326,2.097L53.396,2.133L53.465,2.172L53.533,2.212L53.601,2.254L53.667,2.299L53.732,2.345L53.797,2.392L53.86,2.442L53.922,2.493L53.983,2.546L54.043,2.601L54.102,2.657L54.159,2.715L54.216,2.775L54.271,2.836L54.325,2.899L54.378,2.963L54.429,3.029L54.479,3.096L54.528,3.164L54.575,3.234L54.621,3.306L54.666,3.378L54.709,3.452L54.75,3.528L54.791,3.604L54.829,3.682L54.866,3.761L54.902,3.841L54.936,3.922L54.968,4.004L54.999,4.088L55.028,4.172L55.055,4.258L55.081,4.344L55.104,4.431L55.127,4.52L55.147,4.609L55.165,4.699L55.182,4.79L55.197,4.881L55.21,4.974L55.221,5.067L55.23,5.161L55.237,5.256L55.242,5.351L55.245,5.447L55.246,5.543L55.245,5.64L55.242,5.735L55.237,5.831L55.23,5.925L55.221,6.019L55.21,6.112L55.197,6.205L55.182,6.297L55.165,6.387L55.147,6.477L55.127,6.567L55.104,6.655L55.081,6.742L55.055,6.829L55.028,6.914L54.999,6.998L54.968,7.082L54.936,7.164L54.902,7.245L54.866,7.325L54.829,7.404L54.791,7.482L54.75,7.559L54.709,7.634L54.666,7.708L54.621,7.78L54.575,7.852L54.528,7.922L54.479,7.99L54.429,8.058L54.378,8.123L54.325,8.187L54.271,8.25L54.216,8.311L54.159,8.371L54.102,8.429L54.043,8.485L53.983,8.54L53.922,8.593L53.86,8.644L53.797,8.694L53.732,8.742L53.667,8.788L53.601,8.832L53.533,8.874L53.465,8.914L53.396,8.953L53.326,8.989L53.255,9.024L53.183,9.056L53.111,9.087L53.037,9.115L52.963,9.141L52.888,9.166L52.813,9.188L52.736,9.207L52.659,9.225L52.582,9.24L52.503,9.253L52.424,9.264L52.345,9.273L52.265,9.279L52.184,9.282L52.103,9.283L52.022,9.282L51.942,9.279L51.862,9.273L51.782,9.264L51.703,9.253L51.625,9.24L51.547,9.225L51.47,9.207L51.394,9.188L51.318,9.166L51.243,9.141L51.169,9.115L51.096,9.087L51.023,9.056L50.952,9.024L50.881,8.989L50.811,8.953L50.741,8.914L50.673,8.874L50.606,8.832L50.54,8.788L50.474,8.742L50.41,8.694L50.347,8.644L50.285,8.593L50.224,8.54L50.164,8.485L50.105,8.429L50.047,8.371L49.991,8.311L49.936,8.25L49.882,8.187L49.829,8.123L49.778,8.058L49.728,7.99L49.679,7.922L49.631,7.852L49.585,7.78L49.541,7.708L49.498,7.634L49.456,7.559L49.416,7.482L49.377,7.404L49.34,7.325L49.305,7.245L49.271,7.164L49.239,7.082L49.208,6.998L49.179,6.914L49.152,6.829L49.126,6.742L49.102,6.655L49.08,6.567L49.06,6.477L49.041,6.387L49.025,6.297L49.01,6.205L48.997,6.112L48.986,6.019L48.977,5.925L48.97,5.831L48.965,5.735L48.962,5.64L48.961,5.543L48.962,5.447L48.965,5.351L48.97,5.256L48.977,5.161L48.986,5.067L48.997,4.974L49.01,4.881L49.025,4.79L49.041,4.699L49.06,4.609L49.08,4.52L49.102,4.431L49.126,4.344L49.152,4.258L49.179,4.172L49.208,4.088L49.239,4.004L49.271,3.922L49.305,3.841L49.34,3.761L49.377,3.682L49.416,3.604L49.456,3.528L49.498,3.452L49.541,3.378L49.585,3.306L49.631,3.234L49.679,3.164L49.728,3.096L49.778,3.029L49.829,2.963L49.882,2.899L49.936,2.836L49.991,2.775L50.047,2.715L50.105,2.657L50.164,2.601L50.224,2.546L50.285,2.493L50.347,2.442L50.41,2.392L50.474,2.345L50.54,2.299L50.606,2.254L50.673,2.212L50.741,2.172L50.811,2.133L50.881,2.097L50.952,2.062L51.023,2.03L51.096,1.999L51.169,1.971L51.243,1.945L51.318,1.921L51.394,1.899L51.47,1.879L51.547,1.861L51.625,1.846L51.703,1.833L51.782,1.822L51.862,1.814L51.942,1.808L52.022,1.804L52.103,1.803L52.184,1.804ZM52.083,3.803L52.062,3.804L52.042,3.806L52.022,3.808L52.003,3.811L51.983,3.814L51.964,3.818L51.944,3.822L51.924,3.827L51.905,3.833L51.885,3.839L51.864,3.847L51.844,3.855L51.823,3.863L51.802,3.873L51.781,3.883L51.759,3.895L51.737,3.907L51.715,3.92L51.692,3.934L51.67,3.949L51.647,3.965L51.623,3.982L51.6,4.001L51.577,4.019L51.554,4.04L51.53,4.062L51.507,4.084L51.483,4.108L51.459,4.133L51.436,4.158L51.413,4.185L51.39,4.214L51.367,4.243L51.344,4.273L51.323,4.304L51.3,4.337L51.279,4.37L51.258,4.404L51.237,4.44L51.217,4.477L51.197,4.515L51.178,4.552L51.16,4.591L51.142,4.632L51.125,4.673L51.108,4.715L51.092,4.758L51.077,4.802L51.063,4.846L51.05,4.892L51.037,4.937L51.026,4.984L51.015,5.032L51.005,5.081L50.996,5.129L50.988,5.178L50.981,5.229L50.975,5.28L50.97,5.331L50.966,5.383L50.963,5.436L50.961,5.489L50.961,5.543L50.961,5.597L50.963,5.65L50.966,5.703L50.97,5.755L50.975,5.806L50.981,5.858L50.988,5.908L50.996,5.957L51.005,6.006L51.015,6.054L51.026,6.102L51.037,6.149L51.05,6.195L51.063,6.24L51.077,6.285L51.092,6.328L51.108,6.372L51.125,6.413L51.142,6.454L51.16,6.495L51.178,6.534L51.197,6.572L51.217,6.609L51.237,6.646L51.258,6.682L51.279,6.716L51.3,6.75L51.323,6.782L51.344,6.813L51.367,6.843L51.39,6.873L51.413,6.901L51.436,6.928L51.459,6.954L51.483,6.978L51.507,7.002L51.53,7.025L51.554,7.046L51.577,7.067L51.6,7.086L51.623,7.104L51.647,7.121L51.67,7.137L51.692,7.152L51.715,7.166L51.737,7.18L51.759,7.192L51.781,7.203L51.802,7.213L51.823,7.223L51.844,7.232L51.864,7.24L51.885,7.247L51.905,7.253L51.924,7.259L51.944,7.264L51.964,7.269L51.983,7.272L52.003,7.276L52.022,7.278L52.042,7.281L52.062,7.282L52.083,7.283L52.103,7.283L52.124,7.283L52.144,7.282L52.164,7.281L52.184,7.278L52.204,7.276L52.223,7.272L52.243,7.269L52.263,7.264L52.283,7.259L52.302,7.253L52.322,7.247L52.343,7.24L52.363,7.232L52.384,7.223L52.405,7.213L52.426,7.203L52.448,7.192L52.47,7.18L52.492,7.166L52.514,7.152L52.537,7.137L52.56,7.121L52.583,7.104L52.606,7.086L52.63,7.066L52.653,7.046L52.677,7.025L52.7,7.002L52.723,6.979L52.747,6.954L52.771,6.927L52.793,6.901L52.817,6.873L52.839,6.844L52.862,6.814L52.884,6.782L52.907,6.749L52.928,6.716L52.949,6.682L52.969,6.646L52.989,6.61L53.009,6.573L53.029,6.534L53.047,6.494L53.065,6.454L53.082,6.413L53.098,6.372L53.114,6.328L53.129,6.285L53.144,6.24L53.157,6.195L53.169,6.149L53.181,6.102L53.192,6.055L53.202,6.007L53.211,5.957L53.219,5.907L53.226,5.858L53.232,5.806L53.237,5.754L53.241,5.703L53.243,5.65L53.245,5.597L53.246,5.543L53.245,5.489L53.243,5.436L53.241,5.383L53.237,5.332L53.232,5.28L53.226,5.229L53.219,5.179L53.211,5.129L53.202,5.08L53.192,5.031L53.181,4.984L53.169,4.937L53.157,4.892L53.144,4.846L53.129,4.802L53.114,4.758L53.098,4.715L53.082,4.673L53.065,4.632L53.047,4.592L53.029,4.553L53.009,4.514L52.989,4.476L52.969,4.44L52.949,4.404L52.928,4.37L52.907,4.337L52.885,4.305L52.862,4.273L52.839,4.243L52.817,4.214L52.793,4.185L52.771,4.159L52.747,4.133L52.723,4.107L52.7,4.084L52.677,4.062L52.653,4.04L52.63,4.02L52.606,4.001L52.583,3.982L52.56,3.965L52.537,3.949L52.514,3.934L52.492,3.92L52.47,3.907L52.448,3.894L52.426,3.883L52.405,3.873L52.384,3.863L52.363,3.855L52.343,3.847L52.322,3.839L52.302,3.833L52.283,3.827L52.263,3.822L52.243,3.818L52.223,3.814L52.204,3.811L52.184,3.808L52.164,3.806L52.144,3.804L52.124,3.803L52.103,3.803L52.083,3.803Z" style="fill:#f03;"/>
        <path d="M8.438,3.283L8.438,11.283L31.438,11.283L31.438,3.283L8.438,3.283Z" style="fill:#f90b3b;"/>
        <path d="M8.438,13.76L8.438,22.241L31.463,22.241L31.463,13.76L8.438,13.76Z" style="fill:#f90b3b;"/>
        <path d="M8.438,24.76L8.438,33.241L31.463,33.241L31.463,24.76L8.438,24.76Z" style="fill:#f90b3b;"/>
        <rect x="39.005" y="0.803" width="2" height="32.438" style="fill:#f03;"/>
    </g>
</svg>
