<?xml version="1.0" encoding="UTF-8" standalone="no"?>
<!DOCTYPE svg PUBLIC "-//W3C//DTD SVG 1.1//EN" "http://www.w3.org/Graphics/SVG/1.1/DTD/svg11.dtd">
<svg width="34px" height="34px" version="1.1" xmlns="http://www.w3.org/2000/svg" xmlns:xlink="http://www.w3.org/1999/xlink" xml:space="preserve" xmlns:serif="http://www.serif.com/" style="fill-rule:evenodd;clip-rule:evenodd;stroke-linecap:round;stroke-miterlimit:1.5;">
    <rect id="is-shadow-off" x="0" y="0" width="34" height="33.971" style="fill:none;"/>
    <clipPath id="_clip1">
        <rect x="0" y="0" width="34" height="33.971"/>
    </clipPath>
    <g clip-path="url(#_clip1)">
        <path d="M28.954,8.547C28.954,6.355 28.636,4.575 27.066,4.575L3.11,4.575C1.54,4.575 1.221,6.355 1.221,8.547L1.221,16.489C1.221,18.681 1.54,20.46 3.11,20.46L10.234,20.46L4.847,27.268L14.394,20.46L27.066,20.46C28.636,20.46 28.954,18.681 28.954,16.489L28.954,8.547Z" style="fill:#ddd;"/>
        <path d="M24.51,3.971C24.51,1.779 24.191,0 22.621,0L-1.335,0C-2.905,0 -3.224,1.779 -3.224,3.971L-3.224,11.914C-3.224,14.106 -2.905,15.885 -1.335,15.885L5.79,15.885L4.847,27.268L9.95,15.885L22.621,15.885C24.191,15.885 24.51,14.106 24.51,11.914L24.51,3.971Z" style="fill:#fff;stroke:#fff;stroke-width:1px;"/>
        <text x="21.922px" y="29.363px" style="font-family:'ArialMT', 'Arial', sans-serif;font-size:17.001px;fill:#fff;">?</text>
    </g>
</svg>
