<?xml version="1.0" encoding="UTF-8" standalone="no"?>
<!DOCTYPE svg PUBLIC "-//W3C//DTD SVG 1.1//EN" "http://www.w3.org/Graphics/SVG/1.1/DTD/svg11.dtd">
<svg width="34px" height="34px" version="1.1" xmlns="http://www.w3.org/2000/svg" xmlns:xlink="http://www.w3.org/1999/xlink" xml:space="preserve" xmlns:serif="http://www.serif.com/" style="fill-rule:evenodd;clip-rule:evenodd;stroke-linecap:round;stroke-miterlimit:1.5;">
    <path id="legendOn" d="M34,1.306C34,0.585 33.415,0 32.694,0L1.306,0C0.585,0 0,0.585 0,1.306L0,32.665C0,33.386 0.585,33.971 1.306,33.971L32.694,33.971C33.415,33.971 34,33.386 34,32.665L34,1.306Z" style="fill:none;"/>
    <clipPath id="_clip1">
        <path d="M34,1.306C34,0.585 33.415,0 32.694,0L1.306,0C0.585,0 0,0.585 0,1.306L0,32.665C0,33.386 0.585,33.971 1.306,33.971L32.694,33.971C33.415,33.971 34,33.386 34,32.665L34,1.306Z"/>
    </clipPath>
    <g clip-path="url(#_clip1)">
        <path d="M34,1.592C34,0.713 33.287,0 32.408,0L1.469,0C0.59,0 -0.123,0.713 -0.123,1.592L-0.123,32.408C-0.123,33.287 0.59,34 1.469,34L32.408,34C33.287,34 34,33.287 34,32.408L34,1.592Z" style="fill:#1d1d1d;"/>
        <g>
            <path d="M4.038,32.334L4.038,5.274" style="fill:none;stroke:#fff;stroke-width:0.9px;stroke-dasharray:1.8,2.71,0,0;"/>
            <path d="M31.098,32.334L31.098,5.274" style="fill:none;stroke:#fff;stroke-width:0.9px;stroke-dasharray:1.8,2.71,0,0;"/>
            <g id="pieOn">
                <path d="M11.254,1.215C16.294,1.215 20.385,5.307 20.385,10.346C20.385,15.386 16.294,19.477 11.254,19.477C6.215,19.477 2.123,15.386 2.123,10.346C2.123,5.307 6.215,1.215 11.254,1.215ZM11.254,8.063C12.514,8.063 13.537,9.086 13.537,10.346C13.537,11.606 12.514,12.629 11.254,12.629C9.994,12.629 8.971,11.606 8.971,10.346C8.971,9.086 9.994,8.063 11.254,8.063Z" style="fill:#fffc00;stroke:#008fff;stroke-width:1.31px;stroke-linejoin:round;"/>
                <path d="M20.385,10.346C20.385,5.303 16.297,1.215 11.254,1.215C6.215,1.215 2.123,5.307 2.123,10.346C2.123,12.768 3.085,15.09 4.798,16.803L9.64,11.96C9.212,11.532 8.971,10.952 8.971,10.346C8.971,9.086 9.994,8.063 11.254,8.063C12.515,8.063 13.537,9.085 13.537,10.346L20.385,10.346Z" style="fill:#4cd964;stroke:#008fff;stroke-width:1.31px;stroke-linejoin:round;"/>
                <path d="M11.254,1.215C6.211,1.215 2.123,5.303 2.123,10.346C2.123,12.768 3.085,15.09 4.798,16.803L9.64,11.96C9.212,11.532 8.971,10.952 8.971,10.346C8.971,9.085 9.993,8.063 11.254,8.063L11.254,1.215Z" style="fill:#eb3223;stroke:#008fff;stroke-width:1.31px;stroke-linejoin:round;"/>
            </g>
            <rect x="3.587" y="21.059" width="28.413" height="3.235" style="fill:#ff1900;"/>
            <rect x="3.587" y="25.305" width="28.413" height="3.235" style="fill:#4cd964;"/>
            <rect x="3.587" y="29.55" width="28.413" height="3.235" style="fill:#fffc00;"/>
        </g>
    </g>
</svg>
