<?xml version="1.0" encoding="UTF-8" standalone="no"?>
<!DOCTYPE svg PUBLIC "-//W3C//DTD SVG 1.1//EN" "http://www.w3.org/Graphics/SVG/1.1/DTD/svg11.dtd">
<svg width="34px" height="34px" version="1.1" xmlns="http://www.w3.org/2000/svg" xmlns:xlink="http://www.w3.org/1999/xlink" xml:space="preserve" xmlns:serif="http://www.serif.com/" style="fill-rule:evenodd;clip-rule:evenodd;stroke-linecap:round;stroke-miterlimit:1.5;">
    <rect id="mainOn" x="0" y="0" width="34" height="33.971" style="fill:none;"/>
    <clipPath id="_clip1">
        <rect x="0" y="0" width="34" height="33.971"/>
    </clipPath>
    <g clip-path="url(#_clip1)">
        <path d="M34,1.7C34,0.762 33.238,0 32.3,0L1.577,0C0.639,0 -0.123,0.762 -0.123,1.7L-0.123,32.3C-0.123,33.238 0.639,34 1.577,34L32.3,34C33.238,34 34,33.238 34,32.3L34,1.7Z" style="fill:#1d1d1d;"/>
        <rect x="5" y="23" width="11" height="7" style="fill:#fff;stroke:#000;stroke-width:1px;"/>
        <g>
            <g opacity="0.820545">
                <path d="M55.412,2.396C55.412,-0.348 54.863,-2.576 52.159,-2.576L10.9,-2.576C8.196,-2.576 7.647,-0.348 7.647,2.396L7.647,12.34C7.647,15.084 8.196,17.312 10.9,17.312L23.171,17.312L16.706,25L30.335,17.312L52.159,17.312C54.863,17.312 55.412,15.084 55.412,12.34L55.412,2.396Z" style="fill:#cbadaa;"/>
                <path d="M54.588,1.9C54.588,-0.804 54.04,-3 51.335,-3L10.076,-3C7.372,-3 6.824,-0.804 6.824,1.9L6.824,11.7C6.824,14.404 7.372,16.6 10.076,16.6L22.347,16.6L16.376,25L29.512,16.6L51.335,16.6C54.04,16.6 54.588,14.404 54.588,11.7L54.588,1.9Z" style="fill:#ffd7d2;stroke:#ff1900;stroke-width:1px;"/>
            </g>
        </g>
        <g id="pieOn">
            <path d="M18.507,-2C22.091,-2 25,0.909 25,4.493C25,8.076 22.091,10.985 18.507,10.985C14.924,10.985 12.015,8.076 12.015,4.493C12.015,0.909 14.924,-2 18.507,-2ZM18.507,2.87C19.403,2.87 20.13,3.597 20.13,4.493C20.13,5.389 19.403,6.116 18.507,6.116C17.611,6.116 16.884,5.389 16.884,4.493C16.884,3.597 17.611,2.87 18.507,2.87Z" style="fill:#fffc00;stroke:#008fff;stroke-width:0.93px;stroke-linejoin:round;"/>
            <path d="M25,4.493C25,0.907 22.093,-2 18.507,-2C14.924,-2 12.015,0.909 12.015,4.493C12.015,6.215 12.699,7.866 13.916,9.084L17.36,5.64C17.055,5.336 16.884,4.923 16.884,4.493C16.884,3.597 17.611,2.87 18.507,2.87C19.404,2.87 20.13,3.596 20.13,4.493L25,4.493Z" style="fill:#4cd964;stroke:#008fff;stroke-width:0.93px;stroke-linejoin:round;"/>
            <path d="M18.507,-2C14.921,-2 12.015,0.907 12.015,4.493C12.015,6.215 12.699,7.866 13.916,9.084L17.36,5.64C17.055,5.336 16.884,4.923 16.884,4.493C16.884,3.596 17.611,2.87 18.507,2.87L18.507,-2Z" style="fill:#eb3223;stroke:#008fff;stroke-width:0.93px;stroke-linejoin:round;"/>
        </g>
        <text x="29px" y="9px" style="font-family:'Arial-BoldMT', 'Arial', sans-serif;font-weight:700;font-size:6.985px;stroke:#008fff;stroke-width:1px;stroke-linecap:butt;stroke-linejoin:round;stroke-miterlimit:1.41421;">T</text>
    </g>
</svg>
