<?xml version="1.0" encoding="UTF-8" standalone="no"?>
<!DOCTYPE svg PUBLIC "-//W3C//DTD SVG 1.1//EN" "http://www.w3.org/Graphics/SVG/1.1/DTD/svg11.dtd">
<svg width="100%" height="100%" viewBox="0 0 66 24" version="1.1" xmlns="http://www.w3.org/2000/svg" xmlns:xlink="http://www.w3.org/1999/xlink" xml:space="preserve" xmlns:serif="http://www.serif.com/" style="fill-rule:evenodd;clip-rule:evenodd;stroke-linecap:round;stroke-linejoin:round;stroke-miterlimit:1.5;">
    <g id="on-off">
        <path d="M65.5,6.115c0,-3.099 -2.516,-5.615 -5.615,-5.615l-53.77,0c-3.099,0 -5.615,2.516 -5.615,5.615l0,11.231c0,3.099 2.516,5.616 5.615,5.616l53.77,0c3.099,0 5.615,-2.517 5.615,-5.616l0,-11.231Z" style="fill:#d9d9d9;stroke:#898989;stroke-width:1px;"/>
        <path d="M32.5,2.228c0,0 -18.838,0 -26.658,0c-0.887,0 -1.737,0.352 -2.363,0.979c-0.627,0.626 -0.979,1.476 -0.979,2.362c0,3.467 0,8.857 0,12.323c0,0.886 0.352,1.736 0.979,2.363c0.626,0.627 1.476,0.979 2.363,0.979c7.82,0 26.658,0 26.658,0l0,-19.006Z" style="fill:#4ec351;"/>
        <text x="8px" y="14.962px" style="font-family:'ArialMT', 'Arial', sans-serif;font-size:9.772px;fill:#fff;">ON</text>
        <path d="M32.5,2.228c0,0 19.646,0 27.658,0c1.846,0 3.342,1.496 3.342,3.341c0,3.467 0,8.857 0,12.323c0,1.846 -1.496,3.342 -3.342,3.342c-8.012,0 -27.658,0 -27.658,0l0,-19.006Z" style="fill:#9c9c9c;"/>
        <text x="40px" y="14.962px" style="font-family:'ArialMT', 'Arial', sans-serif;font-size:9.772px;fill:#f00;">OFF</text>
        <g>
            <path d="M36.662,5.88c0,-2.163 -1.756,-3.918 -3.919,-3.918l-26.825,0c-2.162,0 -3.918,1.755 -3.918,3.918l0,11.435c0,2.163 1.756,3.919 3.918,3.919l26.825,0c2.163,0 3.919,-1.756 3.919,-3.919l0,-11.435Z" style="fill:url(#_Linear1);stroke:#898989;stroke-width:1px;stroke-linecap:butt;"/>
            <path d="M34.314,11.598l-3.628,1.814l0,-3.628l3.628,1.814Z" style="fill:#f00;stroke:#f00;stroke-width:1px;"/>
            <path d="M4.686,11.598l3.628,1.814l0,-3.628l-3.628,1.814Z" style="fill:#4ec351;stroke:#4ec351;stroke-width:1px;"/>
        </g>
    </g>
    <defs>
        <linearGradient id="_Linear1" x1="0" y1="0" x2="1" y2="0" gradientUnits="userSpaceOnUse" gradientTransform="matrix(0.169171,20,-20,0.169171,19.3308,3.96151)"><stop offset="0" style="stop-color:#fff;stop-opacity:1"/><stop offset="1" style="stop-color:#a8a8a8;stop-opacity:1"/></linearGradient>
    </defs>
</svg>
