<?xml version="1.0" encoding="UTF-8" standalone="no"?>
<!DOCTYPE svg PUBLIC "-//W3C//DTD SVG 1.1//EN" "http://www.w3.org/Graphics/SVG/1.1/DTD/svg11.dtd">
<svg width="64px" height="64px" version="1.1" xmlns="http://www.w3.org/2000/svg" xmlns:xlink="http://www.w3.org/1999/xlink" xml:space="preserve" xmlns:serif="http://www.serif.com/" style="fill-rule:evenodd;clip-rule:evenodd;stroke-linecap:round;stroke-linejoin:round;stroke-miterlimit:1.5;">
    <g id="pieOn">
        <path d="M64,3.2C64,1.434 62.566,0 60.8,0L3.2,0C1.434,0 0,1.434 0,3.2L0,60.8C0,62.566 1.434,64 3.2,64L60.8,64C62.566,64 64,62.566 64,60.8L64,3.2Z" style="fill:#1d1d1d;"/>
        <g>
            <path d="M32,4C47.454,4 60,16.546 60,32C60,47.454 47.454,60 32,60C16.546,60 4,47.454 4,32C4,16.546 16.546,4 32,4ZM32,25C35.863,25 39,28.137 39,32C39,35.863 35.863,39 32,39C28.137,39 25,35.863 25,32C25,28.137 28.137,25 32,25Z" style="fill:#fffc00;stroke:#008fff;stroke-width:1.5px;"/>
            <path d="M60,32C60,16.536 47.464,4 32,4C16.546,4 4,16.546 4,32C4,39.426 6.95,46.548 12.201,51.799L27.05,36.95C25.737,35.637 25,33.857 25,32C25,28.137 28.137,25 32,25C35.866,25 39,28.134 39,32L60,32Z" style="fill:#4cd964;stroke:#008fff;stroke-width:1.5px;"/>
            <path d="M32,4C16.536,4 4,16.536 4,32C4,39.426 6.95,46.548 12.201,51.799L27.05,36.95C25.737,35.637 25,33.857 25,32C25,28.134 28.134,25 32,25L32,4Z" style="fill:#eb3223;stroke:#008fff;stroke-width:1.5px;"/>
        </g>
    </g>
</svg>
