<?xml version="1.0" encoding="UTF-8" standalone="no"?>
<!DOCTYPE svg PUBLIC "-//W3C//DTD SVG 1.1//EN" "http://www.w3.org/Graphics/SVG/1.1/DTD/svg11.dtd">
<svg width="34px" height="34px" version="1.1" xmlns="http://www.w3.org/2000/svg" xmlns:xlink="http://www.w3.org/1999/xlink" xml:space="preserve" xmlns:serif="http://www.serif.com/" style="fill-rule:evenodd;clip-rule:evenodd;stroke-linejoin:round;stroke-miterlimit:1.41421;">
    <rect id="select_color_off" x="0" y="0" width="34" height="33.971" style="fill:none;"/>
    <circle cx="17" cy="12.917" r="8.753" style="fill:#ddd;fill-opacity:0.329412;"/>
    <path d="M17.113,4.165L17.226,4.167L17.338,4.17L17.45,4.175L17.562,4.182L17.673,4.189L17.784,4.199L17.894,4.209L18.004,4.221L18.114,4.234L18.223,4.249L18.332,4.265L18.441,4.282L18.549,4.301L18.656,4.321L18.763,4.342L18.87,4.364L18.976,4.388L19.081,4.413L19.186,4.44L19.291,4.467L19.395,4.496L19.499,4.526L19.602,4.558L19.704,4.59L19.806,4.624L19.907,4.659L20.008,4.695L20.109,4.733L20.208,4.771L20.307,4.811L20.406,4.852L20.504,4.894L20.601,4.938L20.697,4.982L20.793,5.028L20.889,5.074L20.983,5.122L21.077,5.171L21.171,5.221L21.263,5.272L21.355,5.324L21.447,5.378L21.537,5.432L21.627,5.487L21.716,5.544L21.805,5.601L21.892,5.66L21.979,5.719L22.066,5.78L22.151,5.841L22.236,5.904L22.32,5.967L22.403,6.032L22.485,6.097L22.566,6.164L22.647,6.231L22.727,6.299L22.806,6.369L22.884,6.439L22.961,6.51L23.038,6.582L23.113,6.655L23.188,6.729L23.262,6.804L23.335,6.879L23.407,6.956L23.478,7.033L23.548,7.111L23.617,7.19L23.686,7.27L23.753,7.351L23.82,7.432L23.885,7.514L23.95,7.597L24.013,7.681L24.076,7.766L24.137,7.851L24.198,7.938L24.257,8.024L24.316,8.112L24.373,8.201L24.43,8.29L24.485,8.38L24.539,8.47L24.593,8.562L24.645,8.654L24.696,8.746L24.746,8.84L24.795,8.934L24.843,9.028L24.889,9.124L24.935,9.22L24.979,9.316L25.023,9.413L25.065,9.511L25.106,9.61L25.145,9.709L25.184,9.808L25.221,9.909L25.258,10.009L25.293,10.111L25.327,10.213L25.359,10.315L25.391,10.418L25.421,10.522L25.45,10.626L25.477,10.731L25.504,10.836L25.529,10.941L25.552,11.047L25.575,11.154L25.596,11.261L25.616,11.368L25.635,11.476L25.652,11.585L25.668,11.694L25.683,11.803L25.696,11.912L25.708,12.023L25.718,12.133L25.727,12.244L25.735,12.355L25.742,12.467L25.747,12.579L25.75,12.691L25.752,12.804L25.753,12.917L25.752,13.03L25.75,13.143L25.747,13.255L25.742,13.367L25.735,13.479L25.727,13.59L25.718,13.701L25.708,13.811L25.696,13.921L25.683,14.031L25.668,14.14L25.652,14.249L25.635,14.358L25.616,14.466L25.596,14.573L25.575,14.68L25.552,14.787L25.529,14.893L25.504,14.998L25.477,15.103L25.45,15.208L25.421,15.312L25.391,15.416L25.359,15.519L25.327,15.621L25.293,15.723L25.258,15.824L25.221,15.925L25.184,16.025L25.145,16.125L25.106,16.224L25.065,16.323L25.023,16.42L24.979,16.518L24.935,16.614L24.889,16.71L24.843,16.806L24.795,16.9L24.746,16.994L24.696,17.088L24.645,17.18L24.593,17.272L24.539,17.364L24.485,17.454L24.43,17.544L24.373,17.633L24.316,17.722L24.257,17.809L24.198,17.896L24.137,17.983L24.076,18.068L24.013,18.153L23.95,18.236L23.885,18.32L23.82,18.402L23.753,18.483L23.686,18.564L23.617,18.644L23.548,18.723L23.478,18.801L23.407,18.878L23.335,18.955L23.262,19.03L23.188,19.105L23.113,19.179L23.038,19.252L22.961,19.324L22.884,19.395L22.806,19.465L22.727,19.534L22.647,19.603L22.566,19.67L22.485,19.737L22.403,19.802L22.32,19.867L22.236,19.93L22.151,19.993L22.066,20.054L21.979,20.115L21.892,20.174L21.805,20.233L21.716,20.29L21.627,20.347L21.537,20.402L21.447,20.456L21.355,20.51L21.263,20.562L21.171,20.613L21.077,20.663L20.983,20.712L20.889,20.76L20.793,20.806L20.697,20.852L20.601,20.896L20.504,20.939L20.406,20.982L20.307,21.023L20.208,21.062L20.109,21.101L20.008,21.138L19.907,21.175L19.806,21.21L19.704,21.244L19.602,21.276L19.499,21.307L19.395,21.338L19.291,21.367L19.186,21.394L19.081,21.421L18.976,21.446L18.87,21.469L18.763,21.492L18.656,21.513L18.549,21.533L18.441,21.552L18.332,21.569L18.223,21.585L18.114,21.6L18.004,21.613L17.894,21.625L17.784,21.635L17.673,21.644L17.562,21.652L17.45,21.659L17.338,21.663L17.226,21.667L17.113,21.669L17,21.67L16.887,21.669L16.774,21.667L16.662,21.663L16.55,21.659L16.438,21.652L16.327,21.644L16.216,21.635L16.106,21.625L15.996,21.613L15.886,21.6L15.777,21.585L15.668,21.569L15.559,21.552L15.451,21.533L15.344,21.513L15.237,21.492L15.13,21.469L15.024,21.446L14.919,21.421L14.814,21.394L14.709,21.367L14.605,21.338L14.501,21.307L14.398,21.276L14.296,21.244L14.194,21.21L14.093,21.175L13.992,21.138L13.891,21.101L13.792,21.062L13.693,21.023L13.594,20.982L13.496,20.939L13.399,20.896L13.303,20.852L13.207,20.806L13.111,20.76L13.017,20.712L12.923,20.663L12.829,20.613L12.737,20.562L12.645,20.51L12.553,20.456L12.463,20.402L12.373,20.347L12.284,20.29L12.195,20.233L12.108,20.174L12.021,20.115L11.934,20.054L11.849,19.993L11.764,19.93L11.68,19.867L11.597,19.802L11.515,19.737L11.434,19.67L11.353,19.603L11.273,19.534L11.194,19.465L11.116,19.395L11.039,19.324L10.962,19.252L10.887,19.179L10.812,19.105L10.738,19.03L10.665,18.955L10.593,18.878L10.522,18.801L10.452,18.723L10.383,18.644L10.314,18.564L10.247,18.483L10.18,18.402L10.115,18.32L10.05,18.236L9.987,18.153L9.924,18.068L9.863,17.983L9.802,17.896L9.743,17.809L9.684,17.722L9.627,17.633L9.57,17.544L9.515,17.454L9.461,17.364L9.407,17.272L9.355,17.18L9.304,17.088L9.254,16.994L9.205,16.9L9.157,16.806L9.111,16.71L9.065,16.614L9.021,16.518L8.977,16.42L8.935,16.323L8.894,16.224L8.855,16.125L8.816,16.025L8.779,15.925L8.742,15.824L8.707,15.723L8.673,15.621L8.641,15.519L8.609,15.416L8.579,15.312L8.55,15.208L8.523,15.103L8.496,14.998L8.471,14.893L8.448,14.787L8.425,14.68L8.404,14.573L8.384,14.466L8.365,14.358L8.348,14.249L8.332,14.14L8.317,14.031L8.304,13.921L8.292,13.811L8.282,13.701L8.273,13.59L8.265,13.479L8.258,13.367L8.253,13.255L8.25,13.143L8.248,13.03L8.247,12.917L8.248,12.804L8.25,12.691L8.253,12.579L8.258,12.467L8.265,12.355L8.273,12.244L8.282,12.133L8.292,12.023L8.304,11.912L8.317,11.803L8.332,11.694L8.348,11.585L8.365,11.476L8.384,11.368L8.404,11.261L8.425,11.154L8.448,11.047L8.471,10.941L8.496,10.836L8.523,10.731L8.55,10.626L8.579,10.522L8.609,10.418L8.641,10.315L8.673,10.213L8.707,10.111L8.742,10.009L8.779,9.909L8.816,9.808L8.855,9.709L8.894,9.61L8.935,9.511L8.977,9.413L9.021,9.316L9.065,9.22L9.111,9.124L9.157,9.028L9.205,8.934L9.254,8.84L9.304,8.746L9.355,8.654L9.407,8.562L9.461,8.47L9.515,8.38L9.57,8.29L9.627,8.201L9.684,8.112L9.743,8.024L9.802,7.938L9.863,7.851L9.924,7.766L9.987,7.681L10.05,7.597L10.115,7.514L10.18,7.432L10.247,7.351L10.314,7.27L10.383,7.19L10.452,7.111L10.522,7.033L10.593,6.956L10.665,6.879L10.738,6.804L10.812,6.729L10.887,6.655L10.962,6.582L11.039,6.51L11.116,6.439L11.194,6.369L11.273,6.299L11.353,6.231L11.434,6.164L11.515,6.097L11.597,6.032L11.68,5.967L11.764,5.904L11.849,5.841L11.934,5.78L12.021,5.719L12.108,5.66L12.195,5.601L12.284,5.544L12.373,5.487L12.463,5.432L12.553,5.378L12.645,5.324L12.737,5.272L12.829,5.221L12.923,5.171L13.017,5.122L13.111,5.074L13.207,5.028L13.303,4.982L13.399,4.938L13.496,4.894L13.594,4.852L13.693,4.811L13.792,4.771L13.891,4.733L13.992,4.695L14.093,4.659L14.194,4.624L14.296,4.59L14.398,4.558L14.501,4.526L14.605,4.496L14.709,4.467L14.814,4.44L14.919,4.413L15.024,4.388L15.13,4.364L15.237,4.342L15.344,4.321L15.451,4.301L15.559,4.282L15.668,4.265L15.777,4.249L15.886,4.234L15.996,4.221L16.106,4.209L16.216,4.199L16.327,4.189L16.438,4.182L16.55,4.175L16.662,4.17L16.774,4.167L16.887,4.165L17,4.164L17.113,4.165ZM16.896,4.865L16.792,4.867L16.689,4.87L16.585,4.874L16.483,4.88L16.38,4.887L16.278,4.896L16.176,4.906L16.075,4.917L15.974,4.929L15.874,4.942L15.774,4.957L15.674,4.973L15.575,4.99L15.476,5.008L15.377,5.028L15.279,5.048L15.182,5.07L15.085,5.093L14.988,5.118L14.892,5.143L14.796,5.17L14.701,5.197L14.606,5.226L14.512,5.256L14.419,5.287L14.325,5.319L14.233,5.353L14.14,5.387L14.049,5.423L13.958,5.459L13.867,5.497L13.777,5.536L13.688,5.575L13.599,5.616L13.511,5.658L13.423,5.701L13.336,5.745L13.249,5.79L13.163,5.836L13.078,5.883L12.994,5.931L12.91,5.98L12.826,6.03L12.744,6.081L12.662,6.133L12.58,6.186L12.5,6.24L12.419,6.294L12.34,6.35L12.262,6.407L12.184,6.464L12.106,6.523L12.03,6.582L11.954,6.642L11.879,6.704L11.805,6.766L11.732,6.829L11.659,6.892L11.587,6.957L11.516,7.022L11.445,7.089L11.376,7.156L11.307,7.224L11.239,7.293L11.172,7.362L11.105,7.433L11.04,7.504L10.975,7.576L10.912,7.648L10.849,7.722L10.787,7.796L10.726,7.871L10.665,7.947L10.606,8.023L10.547,8.101L10.49,8.179L10.433,8.257L10.378,8.336L10.323,8.416L10.269,8.497L10.216,8.579L10.164,8.66L10.113,8.743L10.063,8.827L10.014,8.911L9.966,8.995L9.919,9.08L9.873,9.166L9.828,9.253L9.784,9.34L9.741,9.428L9.699,9.516L9.659,9.605L9.619,9.694L9.58,9.784L9.542,9.875L9.506,9.966L9.47,10.057L9.436,10.149L9.402,10.242L9.37,10.335L9.339,10.429L9.309,10.523L9.28,10.618L9.253,10.713L9.226,10.809L9.201,10.905L9.176,11.002L9.153,11.099L9.131,11.196L9.111,11.294L9.091,11.393L9.073,11.492L9.056,11.591L9.04,11.691L9.025,11.791L9.012,11.891L9,11.992L8.989,12.093L8.979,12.195L8.971,12.297L8.963,12.399L8.958,12.502L8.953,12.605L8.95,12.709L8.948,12.813L8.947,12.917L8.948,13.021L8.95,13.125L8.953,13.228L8.958,13.332L8.963,13.434L8.971,13.537L8.979,13.639L8.989,13.741L9,13.842L9.012,13.943L9.025,14.043L9.04,14.143L9.056,14.243L9.073,14.342L9.091,14.441L9.111,14.54L9.131,14.638L9.153,14.735L9.176,14.832L9.201,14.929L9.226,15.025L9.253,15.121L9.28,15.216L9.309,15.311L9.339,15.405L9.37,15.498L9.402,15.592L9.436,15.684L9.47,15.777L9.506,15.868L9.542,15.959L9.58,16.05L9.619,16.14L9.659,16.229L9.699,16.318L9.741,16.406L9.784,16.494L9.828,16.581L9.873,16.668L9.919,16.753L9.966,16.839L10.014,16.923L10.063,17.007L10.113,17.091L10.164,17.173L10.216,17.255L10.269,17.337L10.323,17.417L10.377,17.497L10.433,17.577L10.49,17.655L10.547,17.733L10.606,17.81L10.665,17.887L10.726,17.963L10.787,18.038L10.849,18.112L10.912,18.185L10.975,18.258L11.04,18.33L11.105,18.401L11.172,18.472L11.239,18.541L11.307,18.61L11.376,18.678L11.445,18.745L11.516,18.811L11.587,18.877L11.659,18.942L11.731,19.005L11.805,19.068L11.879,19.13L11.954,19.191L12.03,19.252L12.106,19.311L12.184,19.37L12.262,19.427L12.34,19.484L12.419,19.539L12.499,19.594L12.58,19.648L12.662,19.701L12.744,19.753L12.826,19.804L12.91,19.854L12.994,19.903L13.078,19.951L13.163,19.998L13.249,20.044L13.336,20.089L13.423,20.133L13.511,20.176L13.599,20.218L13.688,20.258L13.777,20.298L13.867,20.337L13.958,20.375L14.049,20.411L14.14,20.447L14.233,20.481L14.325,20.514L14.418,20.547L14.512,20.578L14.606,20.608L14.701,20.637L14.796,20.664L14.892,20.691L14.988,20.716L15.085,20.741L15.182,20.764L15.279,20.785L15.377,20.806L15.476,20.826L15.575,20.844L15.674,20.861L15.774,20.877L15.874,20.892L15.974,20.905L16.075,20.917L16.176,20.928L16.278,20.938L16.38,20.946L16.483,20.954L16.585,20.959L16.688,20.964L16.792,20.967L16.896,20.969L17,20.97L17.104,20.969L17.208,20.967L17.312,20.964L17.415,20.959L17.517,20.954L17.62,20.946L17.722,20.938L17.824,20.928L17.925,20.917L18.026,20.905L18.126,20.892L18.226,20.877L18.326,20.861L18.425,20.844L18.524,20.826L18.623,20.806L18.721,20.785L18.818,20.764L18.915,20.741L19.012,20.716L19.108,20.691L19.204,20.664L19.299,20.637L19.394,20.608L19.488,20.578L19.582,20.547L19.675,20.514L19.767,20.481L19.86,20.447L19.951,20.411L20.042,20.375L20.133,20.337L20.223,20.298L20.312,20.258L20.401,20.218L20.489,20.176L20.577,20.133L20.664,20.089L20.751,20.044L20.836,19.998L20.922,19.951L21.006,19.903L21.09,19.854L21.174,19.804L21.256,19.753L21.338,19.701L21.42,19.648L21.501,19.594L21.58,19.539L21.66,19.484L21.738,19.427L21.816,19.37L21.894,19.311L21.97,19.252L22.046,19.191L22.121,19.13L22.195,19.068L22.269,19.005L22.341,18.942L22.413,18.877L22.484,18.811L22.555,18.745L22.624,18.678L22.693,18.61L22.761,18.541L22.828,18.472L22.895,18.401L22.96,18.33L23.025,18.258L23.088,18.185L23.151,18.112L23.213,18.038L23.275,17.963L23.335,17.887L23.394,17.811L23.453,17.733L23.51,17.655L23.567,17.577L23.623,17.497L23.677,17.417L23.731,17.337L23.784,17.255L23.836,17.173L23.887,17.091L23.937,17.007L23.986,16.923L24.034,16.839L24.081,16.753L24.127,16.668L24.172,16.581L24.216,16.494L24.259,16.406L24.301,16.318L24.341,16.229L24.381,16.14L24.42,16.05L24.458,15.959L24.494,15.868L24.53,15.777L24.564,15.684L24.598,15.592L24.63,15.498L24.661,15.405L24.691,15.311L24.72,15.216L24.747,15.121L24.774,15.025L24.799,14.929L24.824,14.832L24.847,14.735L24.869,14.638L24.889,14.54L24.909,14.441L24.927,14.342L24.944,14.243L24.96,14.143L24.975,14.043L24.988,13.943L25,13.842L25.011,13.741L25.021,13.639L25.029,13.537L25.037,13.434L25.042,13.332L25.047,13.228L25.05,13.125L25.052,13.021L25.053,12.917L25.052,12.813L25.05,12.709L25.047,12.605L25.042,12.502L25.037,12.399L25.029,12.297L25.021,12.195L25.011,12.093L25,11.992L24.988,11.891L24.975,11.791L24.96,11.691L24.944,11.591L24.927,11.492L24.909,11.393L24.889,11.294L24.869,11.196L24.847,11.099L24.824,11.002L24.799,10.905L24.774,10.809L24.747,10.713L24.72,10.618L24.691,10.523L24.661,10.429L24.63,10.335L24.598,10.242L24.564,10.149L24.53,10.057L24.494,9.966L24.458,9.875L24.42,9.784L24.381,9.694L24.341,9.605L24.301,9.516L24.259,9.428L24.216,9.34L24.172,9.253L24.127,9.166L24.081,9.08L24.034,8.995L23.986,8.911L23.937,8.827L23.887,8.743L23.836,8.661L23.784,8.579L23.731,8.497L23.677,8.416L23.622,8.336L23.567,8.257L23.51,8.179L23.453,8.101L23.394,8.023L23.335,7.947L23.274,7.871L23.213,7.796L23.151,7.722L23.088,7.648L23.025,7.576L22.96,7.504L22.895,7.433L22.828,7.362L22.761,7.293L22.693,7.224L22.624,7.156L22.555,7.089L22.484,7.022L22.413,6.957L22.341,6.892L22.268,6.829L22.195,6.766L22.121,6.704L22.046,6.642L21.97,6.582L21.894,6.523L21.816,6.464L21.738,6.407L21.66,6.35L21.58,6.294L21.5,6.24L21.42,6.186L21.338,6.133L21.256,6.081L21.174,6.03L21.09,5.98L21.006,5.931L20.922,5.883L20.836,5.836L20.751,5.79L20.664,5.745L20.577,5.701L20.489,5.658L20.401,5.616L20.312,5.575L20.223,5.536L20.133,5.497L20.042,5.459L19.951,5.423L19.86,5.387L19.767,5.353L19.675,5.319L19.581,5.287L19.488,5.256L19.394,5.226L19.299,5.197L19.204,5.17L19.108,5.143L19.012,5.118L18.915,5.093L18.818,5.07L18.721,5.048L18.623,5.028L18.524,5.008L18.425,4.99L18.326,4.973L18.226,4.957L18.126,4.942L18.026,4.929L17.925,4.917L17.824,4.906L17.722,4.896L17.62,4.887L17.517,4.88L17.415,4.874L17.311,4.87L17.208,4.867L17.104,4.865L17,4.864L16.896,4.865Z" style="fill:#fff;"/>
    <path d="M4.722,25.43C2.306,21.247 3.742,15.889 7.926,13.474C12.109,11.058 17.467,12.494 19.882,16.677C22.298,20.861 20.862,26.219 16.679,28.634C12.495,31.05 7.137,29.614 4.722,25.43Z" style="fill:#ddd;fill-opacity:0.329412;"/>
    <path d="M12.383,12.301L12.489,12.303L12.595,12.306L12.7,12.31L12.805,12.316L12.911,12.323L13.016,12.331L13.12,12.34L13.225,12.351L13.33,12.362L13.434,12.376L13.538,12.39L13.642,12.405L13.746,12.422L13.85,12.44L13.953,12.46L14.056,12.48L14.159,12.502L14.261,12.525L14.364,12.549L14.466,12.574L14.567,12.601L14.668,12.629L14.769,12.658L14.87,12.688L14.97,12.719L15.07,12.752L15.17,12.786L15.269,12.821L15.367,12.857L15.466,12.894L15.564,12.933L15.661,12.972L15.758,13.013L15.854,13.055L15.95,13.098L16.046,13.143L16.141,13.188L16.235,13.235L16.329,13.283L16.423,13.332L16.516,13.382L16.608,13.433L16.7,13.486L16.791,13.539L16.882,13.594L16.972,13.65L17.061,13.707L17.15,13.765L17.238,13.824L17.325,13.884L17.412,13.946L17.498,14.008L17.584,14.072L17.668,14.137L17.752,14.203L17.835,14.27L17.918,14.338L18,14.407L18.081,14.477L18.161,14.549L18.241,14.621L18.319,14.695L18.397,14.769L18.474,14.845L18.55,14.922L18.626,15L18.7,15.078L18.774,15.158L18.847,15.239L18.919,15.322L18.99,15.405L19.06,15.489L19.129,15.574L19.197,15.66L19.264,15.748L19.331,15.836L19.396,15.925L19.46,16.016L19.524,16.107L19.586,16.2L19.648,16.293L19.708,16.388L19.767,16.483L19.825,16.58L19.882,16.677L19.938,16.776L19.993,16.874L20.046,16.973L20.098,17.073L20.148,17.173L20.197,17.273L20.244,17.374L20.29,17.475L20.335,17.576L20.379,17.677L20.421,17.779L20.461,17.882L20.5,17.984L20.538,18.087L20.575,18.19L20.61,18.293L20.644,18.397L20.676,18.501L20.707,18.605L20.737,18.709L20.765,18.813L20.792,18.918L20.818,19.022L20.842,19.127L20.865,19.232L20.887,19.338L20.907,19.443L20.926,19.548L20.944,19.654L20.96,19.759L20.975,19.865L20.989,19.971L21.002,20.077L21.013,20.183L21.023,20.288L21.031,20.394L21.038,20.5L21.044,20.606L21.049,20.712L21.052,20.818L21.054,20.924L21.055,21.029L21.055,21.135L21.053,21.241L21.05,21.346L21.046,21.452L21.04,21.557L21.033,21.662L21.025,21.767L21.016,21.872L21.005,21.977L20.994,22.082L20.98,22.186L20.966,22.29L20.951,22.394L20.934,22.498L20.916,22.601L20.896,22.705L20.876,22.808L20.854,22.911L20.831,23.013L20.807,23.115L20.782,23.217L20.755,23.319L20.727,23.42L20.698,23.521L20.668,23.622L20.637,23.722L20.604,23.822L20.57,23.921L20.536,24.02L20.499,24.119L20.462,24.217L20.423,24.315L20.384,24.413L20.343,24.51L20.301,24.606L20.258,24.702L20.213,24.798L20.168,24.893L20.121,24.987L20.073,25.081L20.024,25.175L19.974,25.267L19.923,25.36L19.87,25.452L19.817,25.543L19.762,25.633L19.706,25.723L19.649,25.813L19.591,25.901L19.532,25.99L19.472,26.077L19.41,26.164L19.348,26.25L19.284,26.335L19.219,26.42L19.153,26.504L19.086,26.587L19.018,26.67L18.949,26.752L18.879,26.833L18.807,26.913L18.735,26.992L18.661,27.071L18.587,27.149L18.511,27.226L18.434,27.302L18.356,27.378L18.278,27.452L18.198,27.526L18.117,27.598L18.034,27.67L17.951,27.741L17.867,27.811L17.782,27.881L17.696,27.949L17.608,28.016L17.52,28.082L17.431,28.148L17.34,28.212L17.249,28.276L17.156,28.338L17.063,28.399L16.968,28.46L16.873,28.519L16.776,28.577L16.679,28.634L16.58,28.69L16.482,28.745L16.383,28.798L16.283,28.849L16.183,28.9L16.083,28.949L15.982,28.996L15.881,29.042L15.78,29.087L15.679,29.13L15.577,29.172L15.474,29.213L15.372,29.252L15.269,29.29L15.166,29.326L15.063,29.362L14.959,29.395L14.855,29.428L14.751,29.459L14.647,29.489L14.543,29.517L14.438,29.544L14.334,29.57L14.229,29.594L14.124,29.617L14.018,29.639L13.913,29.659L13.808,29.678L13.702,29.696L13.597,29.712L13.491,29.727L13.385,29.741L13.279,29.753L13.173,29.765L13.068,29.774L12.962,29.783L12.856,29.79L12.75,29.796L12.644,29.801L12.538,29.804L12.432,29.806L12.327,29.807L12.221,29.806L12.115,29.805L12.01,29.802L11.904,29.797L11.799,29.792L11.694,29.785L11.589,29.777L11.484,29.768L11.379,29.757L11.274,29.745L11.17,29.732L11.066,29.718L10.962,29.702L10.858,29.685L10.755,29.667L10.651,29.648L10.548,29.628L10.445,29.606L10.343,29.583L10.241,29.559L10.139,29.534L10.037,29.507L9.936,29.479L9.835,29.45L9.734,29.42L9.634,29.389L9.534,29.356L9.435,29.322L9.336,29.287L9.237,29.251L9.139,29.214L9.041,29.175L8.943,29.136L8.846,29.095L8.75,29.053L8.654,29.009L8.558,28.965L8.463,28.919L8.369,28.873L8.275,28.825L8.181,28.776L8.089,28.726L7.996,28.675L7.904,28.622L7.813,28.569L7.723,28.514L7.633,28.458L7.543,28.401L7.455,28.343L7.366,28.284L7.279,28.223L7.192,28.162L7.106,28.099L7.021,28.036L6.936,27.971L6.852,27.905L6.769,27.838L6.686,27.77L6.604,27.701L6.523,27.63L6.443,27.559L6.364,27.487L6.285,27.413L6.207,27.338L6.13,27.263L6.054,27.186L5.978,27.108L5.904,27.029L5.83,26.949L5.758,26.868L5.686,26.786L5.615,26.703L5.545,26.619L5.475,26.534L5.407,26.447L5.34,26.36L5.274,26.272L5.208,26.182L5.144,26.092L5.08,26L5.018,25.908L4.957,25.814L4.896,25.72L4.837,25.624L4.779,25.528L4.722,25.43L4.666,25.332L4.611,25.233L4.558,25.134L4.507,25.035L4.456,24.935L4.407,24.835L4.36,24.734L4.314,24.633L4.269,24.532L4.226,24.43L4.184,24.328L4.143,24.226L4.104,24.124L4.066,24.021L4.03,23.918L3.994,23.814L3.961,23.711L3.928,23.607L3.897,23.503L3.867,23.399L3.839,23.295L3.812,23.19L3.786,23.085L3.762,22.98L3.739,22.875L3.717,22.77L3.697,22.665L3.678,22.559L3.66,22.454L3.644,22.348L3.629,22.243L3.615,22.137L3.603,22.031L3.591,21.925L3.582,21.819L3.573,21.713L3.566,21.607L3.56,21.502L3.555,21.396L3.552,21.29L3.55,21.184L3.549,21.078L3.55,20.973L3.551,20.867L3.554,20.761L3.559,20.656L3.564,20.551L3.571,20.446L3.579,20.34L3.588,20.236L3.599,20.131L3.611,20.026L3.624,19.922L3.638,19.818L3.654,19.714L3.671,19.61L3.689,19.506L3.708,19.403L3.728,19.3L3.75,19.197L3.773,19.095L3.797,18.992L3.822,18.89L3.849,18.789L3.877,18.688L3.906,18.587L3.936,18.486L3.967,18.386L4,18.286L4.034,18.186L4.069,18.087L4.105,17.989L4.142,17.89L4.181,17.793L4.22,17.695L4.261,17.598L4.303,17.502L4.347,17.406L4.391,17.31L4.437,17.215L4.483,17.121L4.531,17.027L4.58,16.933L4.63,16.84L4.681,16.748L4.734,16.656L4.788,16.565L4.842,16.474L4.898,16.384L4.955,16.295L5.013,16.206L5.072,16.118L5.133,16.031L5.194,15.944L5.257,15.858L5.32,15.772L5.385,15.688L5.451,15.604L5.518,15.521L5.586,15.438L5.655,15.356L5.726,15.275L5.797,15.195L5.869,15.115L5.943,15.037L6.018,14.959L6.093,14.882L6.17,14.806L6.248,14.73L6.327,14.656L6.407,14.582L6.488,14.509L6.57,14.437L6.653,14.366L6.737,14.296L6.822,14.227L6.909,14.159L6.996,14.092L7.084,14.025L7.174,13.96L7.264,13.896L7.356,13.832L7.448,13.77L7.542,13.709L7.636,13.648L7.732,13.589L7.828,13.531L7.926,13.474L8.024,13.418L8.123,13.363L8.222,13.31L8.321,13.258L8.421,13.208L8.521,13.159L8.622,13.112L8.723,13.066L8.824,13.021L8.926,12.977L9.028,12.935L9.13,12.895L9.232,12.856L9.335,12.818L9.438,12.781L9.542,12.746L9.645,12.712L9.749,12.68L9.853,12.649L9.957,12.619L10.061,12.591L10.166,12.564L10.271,12.538L10.376,12.514L10.481,12.491L10.586,12.469L10.691,12.449L10.797,12.43L10.902,12.412L11.008,12.396L11.113,12.381L11.219,12.367L11.325,12.354L11.431,12.343L11.537,12.333L11.643,12.325L11.749,12.318L11.854,12.312L11.96,12.307L12.066,12.304L12.172,12.302L12.278,12.301L12.383,12.301ZM12.182,13.001L12.084,13.003L11.987,13.007L11.889,13.011L11.792,13.016L11.695,13.023L11.597,13.031L11.5,13.04L11.403,13.05L11.305,13.062L11.208,13.074L11.111,13.088L11.014,13.103L10.917,13.119L10.82,13.137L10.723,13.156L10.626,13.175L10.53,13.197L10.433,13.219L10.337,13.243L10.241,13.267L10.145,13.294L10.049,13.321L9.953,13.349L9.858,13.379L9.763,13.41L9.668,13.443L9.573,13.476L9.478,13.511L9.384,13.547L9.29,13.584L9.196,13.623L9.103,13.663L9.01,13.704L8.917,13.747L8.824,13.79L8.732,13.835L8.64,13.882L8.548,13.929L8.457,13.978L8.366,14.028L8.276,14.08L8.186,14.132L8.097,14.186L8.009,14.241L7.922,14.296L7.836,14.353L7.751,14.41L7.666,14.468L7.583,14.528L7.501,14.588L7.42,14.649L7.339,14.711L7.26,14.773L7.182,14.837L7.104,14.901L7.028,14.967L6.952,15.033L6.878,15.1L6.804,15.168L6.732,15.236L6.66,15.305L6.59,15.375L6.52,15.446L6.451,15.518L6.384,15.59L6.317,15.663L6.252,15.737L6.187,15.812L6.123,15.887L6.061,15.963L5.999,16.039L5.939,16.116L5.879,16.194L5.82,16.273L5.763,16.352L5.706,16.432L5.651,16.512L5.596,16.593L5.543,16.675L5.491,16.757L5.439,16.84L5.389,16.923L5.34,17.007L5.291,17.092L5.244,17.176L5.198,17.262L5.153,17.348L5.109,17.434L5.066,17.521L5.024,17.609L4.983,17.697L4.943,17.785L4.905,17.874L4.867,17.963L4.831,18.053L4.795,18.143L4.761,18.233L4.727,18.324L4.695,18.415L4.664,18.507L4.634,18.599L4.605,18.691L4.578,18.784L4.551,18.877L4.525,18.97L4.501,19.064L4.477,19.157L4.455,19.252L4.434,19.346L4.414,19.441L4.395,19.535L4.377,19.63L4.361,19.726L4.345,19.821L4.331,19.917L4.318,20.013L4.306,20.109L4.295,20.205L4.285,20.302L4.277,20.398L4.269,20.495L4.263,20.592L4.258,20.689L4.254,20.786L4.251,20.883L4.249,20.98L4.249,21.077L4.25,21.174L4.252,21.272L4.255,21.369L4.259,21.467L4.265,21.564L4.271,21.661L4.279,21.759L4.288,21.856L4.298,21.953L4.31,22.051L4.322,22.148L4.336,22.245L4.351,22.342L4.368,22.439L4.385,22.536L4.404,22.633L4.424,22.73L4.445,22.826L4.467,22.923L4.491,23.019L4.516,23.115L4.542,23.211L4.569,23.307L4.598,23.403L4.627,23.498L4.659,23.593L4.691,23.688L4.724,23.783L4.759,23.878L4.795,23.972L4.833,24.066L4.871,24.16L4.911,24.253L4.952,24.346L4.995,24.439L5.038,24.532L5.084,24.624L5.13,24.716L5.177,24.808L5.226,24.899L5.277,24.99L5.328,25.08L5.381,25.17L5.434,25.259L5.489,25.347L5.545,25.434L5.601,25.52L5.658,25.605L5.717,25.69L5.776,25.773L5.836,25.855L5.897,25.936L5.959,26.017L6.022,26.096L6.085,26.174L6.15,26.252L6.215,26.328L6.281,26.404L6.348,26.478L6.416,26.552L6.484,26.624L6.554,26.696L6.624,26.766L6.695,26.836L6.766,26.905L6.838,26.972L6.912,27.039L6.985,27.104L7.06,27.169L7.135,27.233L7.211,27.295L7.288,27.357L7.365,27.417L7.443,27.477L7.521,27.536L7.6,27.593L7.68,27.65L7.761,27.705L7.842,27.76L7.923,27.813L8.005,27.865L8.088,27.917L8.171,27.967L8.255,28.016L8.34,28.065L8.425,28.112L8.51,28.158L8.596,28.203L8.683,28.247L8.77,28.29L8.857,28.332L8.945,28.373L9.033,28.413L9.122,28.451L9.211,28.489L9.301,28.525L9.391,28.561L9.482,28.595L9.572,28.628L9.664,28.661L9.755,28.692L9.847,28.722L9.94,28.751L10.032,28.779L10.125,28.805L10.218,28.831L10.312,28.855L10.406,28.879L10.5,28.901L10.594,28.922L10.689,28.942L10.784,28.961L10.879,28.979L10.974,28.995L11.07,29.011L11.165,29.025L11.261,29.038L11.357,29.05L11.454,29.061L11.55,29.071L11.647,29.079L11.743,29.087L11.84,29.093L11.937,29.098L12.034,29.102L12.131,29.105L12.228,29.107L12.325,29.107L12.423,29.106L12.52,29.104L12.617,29.101L12.715,29.097L12.812,29.091L12.91,29.085L13.007,29.077L13.104,29.068L13.202,29.058L13.299,29.046L13.396,29.034L13.493,29.02L13.591,29.005L13.688,28.988L13.785,28.971L13.881,28.952L13.978,28.932L14.075,28.911L14.171,28.889L14.267,28.865L14.364,28.84L14.459,28.814L14.555,28.787L14.651,28.758L14.746,28.729L14.842,28.697L14.937,28.665L15.031,28.632L15.126,28.597L15.22,28.561L15.314,28.523L15.408,28.485L15.501,28.445L15.595,28.404L15.687,28.361L15.78,28.318L15.872,28.272L15.964,28.226L16.056,28.179L16.147,28.13L16.238,28.079L16.329,28.028L16.419,27.975L16.507,27.922L16.595,27.867L16.683,27.811L16.769,27.755L16.854,27.698L16.938,27.639L17.021,27.58L17.103,27.52L17.185,27.459L17.265,27.397L17.344,27.334L17.423,27.271L17.5,27.206L17.577,27.141L17.652,27.075L17.726,27.008L17.8,26.94L17.873,26.872L17.944,26.802L18.015,26.732L18.084,26.661L18.153,26.59L18.22,26.518L18.287,26.444L18.353,26.371L18.417,26.296L18.481,26.221L18.544,26.145L18.605,26.069L18.666,25.991L18.725,25.913L18.784,25.835L18.841,25.756L18.898,25.676L18.953,25.595L19.008,25.514L19.061,25.433L19.114,25.351L19.165,25.268L19.215,25.185L19.265,25.101L19.313,25.016L19.36,24.931L19.406,24.846L19.451,24.76L19.495,24.673L19.538,24.586L19.58,24.499L19.621,24.411L19.661,24.323L19.7,24.234L19.737,24.145L19.774,24.055L19.809,23.965L19.844,23.874L19.877,23.784L19.909,23.692L19.94,23.601L19.97,23.509L19.999,23.416L20.027,23.324L20.053,23.231L20.079,23.138L20.104,23.044L20.127,22.95L20.149,22.856L20.17,22.762L20.19,22.667L20.209,22.572L20.227,22.477L20.243,22.382L20.259,22.286L20.273,22.191L20.286,22.095L20.298,21.999L20.309,21.902L20.319,21.806L20.328,21.709L20.335,21.613L20.341,21.516L20.346,21.419L20.35,21.322L20.353,21.225L20.355,21.128L20.355,21.031L20.354,20.933L20.353,20.836L20.349,20.739L20.345,20.641L20.34,20.544L20.333,20.446L20.325,20.349L20.316,20.252L20.306,20.154L20.295,20.057L20.282,19.96L20.268,19.863L20.253,19.765L20.237,19.668L20.219,19.571L20.2,19.475L20.181,19.378L20.159,19.281L20.137,19.185L20.113,19.089L20.089,18.993L20.062,18.896L20.035,18.801L20.007,18.705L19.977,18.61L19.946,18.514L19.913,18.419L19.88,18.325L19.845,18.23L19.809,18.136L19.772,18.042L19.733,17.948L19.693,17.855L19.652,17.761L19.61,17.669L19.566,17.576L19.521,17.484L19.474,17.392L19.427,17.3L19.378,17.209L19.328,17.118L19.276,17.027L19.224,16.938L19.17,16.849L19.115,16.761L19.06,16.674L19.003,16.587L18.946,16.502L18.888,16.418L18.828,16.335L18.768,16.253L18.707,16.171L18.645,16.091L18.583,16.012L18.519,15.933L18.454,15.856L18.389,15.779L18.323,15.704L18.256,15.63L18.188,15.556L18.12,15.483L18.051,15.412L17.981,15.341L17.91,15.272L17.838,15.203L17.766,15.136L17.693,15.069L17.619,15.003L17.545,14.939L17.469,14.875L17.393,14.812L17.317,14.751L17.24,14.69L17.162,14.631L17.083,14.572L17.004,14.515L16.924,14.458L16.844,14.403L16.763,14.348L16.681,14.295L16.599,14.242L16.516,14.191L16.433,14.141L16.349,14.091L16.264,14.043L16.18,13.996L16.094,13.95L16.008,13.905L15.922,13.861L15.835,13.818L15.747,13.776L15.659,13.735L15.571,13.695L15.482,13.656L15.393,13.619L15.303,13.582L15.213,13.547L15.123,13.513L15.032,13.479L14.941,13.447L14.849,13.416L14.757,13.386L14.665,13.357L14.572,13.329L14.479,13.303L14.386,13.277L14.292,13.252L14.199,13.229L14.104,13.207L14.01,13.186L13.915,13.166L13.821,13.147L13.726,13.129L13.63,13.113L13.535,13.097L13.439,13.083L13.343,13.07L13.247,13.058L13.151,13.047L13.054,13.037L12.958,13.028L12.861,13.021L12.764,13.015L12.667,13.01L12.57,13.006L12.473,13.003L12.376,13.001L12.279,13.001L12.182,13.001Z" style="fill:#fff;"/>
    <path d="M29.278,25.43C26.863,29.614 21.505,31.05 17.321,28.634C13.138,26.219 11.702,20.861 14.118,16.677C16.533,12.494 21.891,11.058 26.074,13.474C30.258,15.889 31.694,21.247 29.278,25.43Z" style="fill:#ddd;fill-opacity:0.329412;"/>
    <path d="M21.828,12.302L21.934,12.304L22.04,12.307L22.146,12.312L22.251,12.318L22.357,12.325L22.463,12.333L22.569,12.343L22.675,12.354L22.781,12.367L22.887,12.381L22.992,12.396L23.098,12.412L23.203,12.43L23.309,12.449L23.414,12.469L23.519,12.491L23.624,12.514L23.729,12.538L23.834,12.564L23.939,12.591L24.043,12.619L24.147,12.649L24.251,12.68L24.355,12.712L24.458,12.746L24.562,12.781L24.665,12.818L24.768,12.856L24.87,12.895L24.972,12.935L25.074,12.977L25.176,13.021L25.277,13.066L25.378,13.112L25.479,13.159L25.579,13.208L25.679,13.258L25.778,13.31L25.877,13.363L25.976,13.418L26.074,13.474L26.172,13.531L26.268,13.589L26.364,13.648L26.458,13.709L26.552,13.77L26.644,13.832L26.736,13.896L26.826,13.96L26.916,14.025L27.004,14.092L27.091,14.159L27.178,14.227L27.263,14.296L27.347,14.366L27.43,14.437L27.512,14.509L27.593,14.582L27.673,14.656L27.752,14.73L27.83,14.806L27.907,14.882L27.982,14.959L28.057,15.037L28.131,15.115L28.203,15.195L28.274,15.275L28.345,15.356L28.414,15.438L28.482,15.521L28.549,15.604L28.615,15.688L28.68,15.772L28.743,15.858L28.806,15.944L28.867,16.031L28.928,16.118L28.987,16.206L29.045,16.295L29.102,16.384L29.158,16.474L29.212,16.565L29.266,16.656L29.319,16.748L29.37,16.84L29.42,16.933L29.469,17.027L29.517,17.121L29.563,17.215L29.609,17.31L29.653,17.406L29.697,17.502L29.739,17.598L29.78,17.695L29.819,17.793L29.858,17.89L29.895,17.989L29.931,18.087L29.966,18.186L30,18.286L30.033,18.386L30.064,18.486L30.094,18.587L30.123,18.688L30.151,18.789L30.178,18.89L30.203,18.992L30.227,19.095L30.25,19.197L30.272,19.3L30.292,19.403L30.311,19.506L30.329,19.61L30.346,19.714L30.362,19.818L30.376,19.922L30.389,20.026L30.401,20.131L30.412,20.236L30.421,20.34L30.429,20.446L30.436,20.551L30.441,20.656L30.446,20.761L30.449,20.867L30.45,20.973L30.451,21.078L30.45,21.184L30.448,21.29L30.445,21.396L30.44,21.502L30.434,21.607L30.427,21.713L30.418,21.819L30.409,21.925L30.397,22.031L30.385,22.137L30.371,22.243L30.356,22.348L30.34,22.454L30.322,22.559L30.303,22.665L30.283,22.77L30.261,22.875L30.238,22.98L30.214,23.085L30.188,23.19L30.161,23.295L30.133,23.399L30.103,23.503L30.072,23.607L30.039,23.711L30.006,23.814L29.97,23.918L29.934,24.021L29.896,24.124L29.857,24.226L29.816,24.328L29.774,24.43L29.731,24.532L29.686,24.633L29.64,24.734L29.593,24.835L29.544,24.935L29.493,25.035L29.442,25.134L29.389,25.233L29.334,25.332L29.278,25.43L29.221,25.528L29.163,25.624L29.104,25.72L29.043,25.814L28.982,25.908L28.92,26L28.856,26.092L28.792,26.182L28.726,26.272L28.66,26.36L28.593,26.447L28.525,26.534L28.455,26.619L28.385,26.703L28.314,26.786L28.242,26.868L28.17,26.949L28.096,27.029L28.022,27.108L27.946,27.186L27.87,27.263L27.793,27.338L27.715,27.413L27.636,27.487L27.557,27.559L27.477,27.63L27.396,27.701L27.314,27.77L27.231,27.838L27.148,27.905L27.064,27.971L26.979,28.036L26.894,28.099L26.808,28.162L26.721,28.223L26.634,28.284L26.545,28.343L26.457,28.401L26.367,28.458L26.277,28.514L26.187,28.569L26.096,28.622L26.004,28.675L25.911,28.726L25.819,28.776L25.725,28.825L25.631,28.873L25.537,28.919L25.442,28.965L25.346,29.009L25.25,29.053L25.154,29.095L25.057,29.136L24.959,29.175L24.861,29.214L24.763,29.251L24.664,29.287L24.565,29.322L24.466,29.356L24.366,29.389L24.266,29.42L24.165,29.45L24.064,29.479L23.963,29.507L23.861,29.534L23.759,29.559L23.657,29.583L23.555,29.606L23.452,29.628L23.349,29.648L23.245,29.667L23.142,29.685L23.038,29.702L22.934,29.718L22.83,29.732L22.726,29.745L22.621,29.757L22.516,29.768L22.411,29.777L22.306,29.785L22.201,29.792L22.096,29.797L21.99,29.802L21.885,29.805L21.779,29.806L21.673,29.807L21.568,29.806L21.462,29.804L21.356,29.801L21.25,29.796L21.144,29.79L21.038,29.783L20.932,29.774L20.827,29.765L20.721,29.753L20.615,29.741L20.509,29.727L20.403,29.712L20.298,29.696L20.192,29.678L20.087,29.659L19.982,29.639L19.876,29.617L19.771,29.594L19.666,29.57L19.562,29.544L19.457,29.517L19.353,29.489L19.249,29.459L19.145,29.428L19.041,29.395L18.937,29.362L18.834,29.326L18.731,29.29L18.628,29.252L18.526,29.213L18.423,29.172L18.321,29.13L18.22,29.087L18.119,29.042L18.018,28.996L17.917,28.949L17.817,28.9L17.717,28.849L17.617,28.798L17.518,28.745L17.42,28.69L17.321,28.634L17.224,28.577L17.127,28.519L17.032,28.46L16.937,28.399L16.844,28.338L16.751,28.276L16.66,28.212L16.569,28.148L16.48,28.082L16.392,28.016L16.304,27.949L16.218,27.881L16.133,27.811L16.049,27.741L15.966,27.67L15.883,27.598L15.802,27.526L15.722,27.452L15.644,27.378L15.566,27.302L15.489,27.226L15.413,27.149L15.339,27.071L15.265,26.992L15.193,26.913L15.121,26.833L15.051,26.752L14.982,26.67L14.914,26.587L14.847,26.504L14.781,26.42L14.716,26.335L14.652,26.25L14.59,26.164L14.528,26.077L14.468,25.99L14.409,25.901L14.351,25.813L14.294,25.723L14.238,25.633L14.183,25.543L14.13,25.452L14.077,25.36L14.026,25.267L13.976,25.175L13.927,25.081L13.879,24.987L13.832,24.893L13.787,24.798L13.742,24.702L13.699,24.606L13.657,24.51L13.616,24.413L13.577,24.315L13.538,24.217L13.501,24.119L13.464,24.02L13.43,23.921L13.396,23.822L13.363,23.722L13.332,23.622L13.302,23.521L13.273,23.42L13.245,23.319L13.218,23.217L13.193,23.115L13.169,23.013L13.146,22.911L13.124,22.808L13.104,22.705L13.084,22.601L13.066,22.498L13.049,22.394L13.034,22.29L13.02,22.186L13.006,22.082L12.995,21.977L12.984,21.872L12.975,21.767L12.967,21.662L12.96,21.557L12.954,21.452L12.95,21.346L12.947,21.241L12.945,21.135L12.945,21.029L12.946,20.924L12.948,20.818L12.951,20.712L12.956,20.606L12.962,20.5L12.969,20.394L12.977,20.288L12.987,20.183L12.998,20.077L13.011,19.971L13.025,19.865L13.04,19.759L13.056,19.654L13.074,19.548L13.093,19.443L13.113,19.338L13.135,19.232L13.158,19.127L13.182,19.022L13.208,18.918L13.235,18.813L13.263,18.709L13.293,18.605L13.324,18.501L13.356,18.397L13.39,18.293L13.425,18.19L13.462,18.087L13.5,17.984L13.539,17.882L13.579,17.779L13.621,17.677L13.665,17.576L13.71,17.475L13.756,17.374L13.803,17.273L13.852,17.173L13.902,17.073L13.954,16.973L14.007,16.874L14.062,16.776L14.118,16.677L14.175,16.58L14.233,16.483L14.292,16.388L14.352,16.293L14.414,16.2L14.476,16.107L14.54,16.016L14.604,15.925L14.669,15.836L14.736,15.748L14.803,15.66L14.871,15.574L14.94,15.489L15.01,15.405L15.081,15.322L15.153,15.239L15.226,15.158L15.3,15.078L15.374,15L15.45,14.922L15.526,14.845L15.603,14.769L15.681,14.695L15.759,14.621L15.839,14.549L15.919,14.477L16,14.407L16.082,14.338L16.165,14.27L16.248,14.203L16.332,14.137L16.416,14.072L16.502,14.008L16.588,13.946L16.675,13.884L16.762,13.824L16.85,13.765L16.939,13.707L17.028,13.65L17.118,13.594L17.209,13.539L17.3,13.486L17.392,13.433L17.484,13.382L17.577,13.332L17.671,13.283L17.765,13.235L17.859,13.188L17.954,13.143L18.05,13.098L18.146,13.055L18.242,13.013L18.339,12.972L18.436,12.933L18.534,12.894L18.633,12.857L18.731,12.821L18.83,12.786L18.93,12.752L19.03,12.719L19.13,12.688L19.231,12.658L19.332,12.629L19.433,12.601L19.534,12.574L19.636,12.549L19.739,12.525L19.841,12.502L19.944,12.48L20.047,12.46L20.15,12.44L20.254,12.422L20.358,12.405L20.462,12.39L20.566,12.376L20.67,12.362L20.775,12.351L20.88,12.34L20.984,12.331L21.089,12.323L21.195,12.316L21.3,12.31L21.405,12.306L21.511,12.303L21.617,12.301L21.722,12.301L21.828,12.302ZM21.624,13.001L21.527,13.003L21.43,13.006L21.333,13.01L21.236,13.015L21.139,13.021L21.042,13.028L20.946,13.037L20.849,13.047L20.753,13.058L20.657,13.07L20.561,13.083L20.465,13.097L20.37,13.113L20.274,13.129L20.179,13.147L20.085,13.166L19.99,13.186L19.896,13.207L19.801,13.229L19.708,13.252L19.614,13.277L19.521,13.303L19.428,13.329L19.335,13.357L19.243,13.386L19.151,13.416L19.059,13.447L18.968,13.479L18.877,13.513L18.787,13.547L18.697,13.582L18.607,13.619L18.518,13.656L18.429,13.695L18.341,13.735L18.253,13.776L18.165,13.818L18.078,13.861L17.992,13.905L17.906,13.95L17.82,13.996L17.736,14.043L17.651,14.091L17.567,14.141L17.484,14.191L17.401,14.242L17.319,14.295L17.237,14.348L17.156,14.403L17.076,14.458L16.996,14.515L16.917,14.572L16.838,14.631L16.76,14.69L16.683,14.751L16.607,14.812L16.531,14.875L16.456,14.939L16.381,15.003L16.307,15.069L16.234,15.136L16.162,15.203L16.09,15.272L16.019,15.341L15.949,15.412L15.88,15.483L15.812,15.556L15.744,15.63L15.677,15.704L15.611,15.779L15.546,15.856L15.481,15.933L15.417,16.012L15.355,16.091L15.293,16.171L15.232,16.253L15.172,16.335L15.112,16.418L15.054,16.502L14.997,16.587L14.94,16.674L14.885,16.761L14.83,16.849L14.776,16.938L14.724,17.027L14.672,17.118L14.622,17.209L14.573,17.3L14.526,17.392L14.479,17.484L14.434,17.576L14.39,17.669L14.348,17.761L14.307,17.855L14.267,17.948L14.228,18.042L14.191,18.136L14.155,18.23L14.12,18.325L14.087,18.419L14.054,18.514L14.023,18.61L13.993,18.705L13.965,18.801L13.938,18.896L13.911,18.993L13.887,19.089L13.863,19.185L13.841,19.281L13.819,19.378L13.8,19.475L13.781,19.571L13.763,19.668L13.747,19.765L13.732,19.863L13.718,19.96L13.706,20.057L13.694,20.154L13.684,20.252L13.675,20.349L13.667,20.446L13.66,20.544L13.655,20.641L13.651,20.739L13.647,20.836L13.646,20.933L13.645,21.031L13.645,21.128L13.647,21.225L13.65,21.322L13.654,21.419L13.659,21.516L13.665,21.613L13.672,21.709L13.681,21.806L13.691,21.902L13.702,21.999L13.714,22.095L13.727,22.191L13.741,22.286L13.757,22.382L13.773,22.477L13.791,22.572L13.81,22.667L13.83,22.762L13.851,22.856L13.873,22.95L13.896,23.044L13.921,23.138L13.947,23.231L13.973,23.324L14.001,23.416L14.03,23.509L14.06,23.601L14.091,23.692L14.123,23.784L14.157,23.874L14.191,23.965L14.226,24.055L14.263,24.145L14.3,24.234L14.339,24.323L14.379,24.411L14.42,24.499L14.462,24.586L14.505,24.673L14.549,24.76L14.594,24.846L14.64,24.931L14.687,25.016L14.735,25.101L14.785,25.184L14.835,25.268L14.886,25.351L14.939,25.433L14.992,25.514L15.047,25.595L15.102,25.676L15.159,25.756L15.216,25.835L15.275,25.913L15.334,25.991L15.395,26.069L15.457,26.145L15.519,26.221L15.583,26.296L15.647,26.371L15.713,26.444L15.78,26.518L15.847,26.59L15.916,26.661L15.985,26.732L16.056,26.802L16.127,26.872L16.2,26.94L16.274,27.008L16.348,27.075L16.423,27.141L16.5,27.206L16.577,27.271L16.656,27.334L16.735,27.397L16.815,27.459L16.897,27.52L16.979,27.58L17.062,27.639L17.146,27.698L17.231,27.755L17.317,27.812L17.404,27.867L17.493,27.922L17.581,27.975L17.671,28.028L17.762,28.079L17.853,28.13L17.944,28.179L18.036,28.226L18.128,28.273L18.22,28.318L18.313,28.361L18.405,28.404L18.499,28.445L18.592,28.485L18.686,28.523L18.78,28.561L18.874,28.597L18.969,28.632L19.063,28.665L19.158,28.697L19.254,28.729L19.349,28.758L19.445,28.787L19.54,28.814L19.637,28.84L19.733,28.865L19.829,28.889L19.925,28.911L20.022,28.932L20.119,28.952L20.215,28.971L20.312,28.988L20.409,29.005L20.507,29.02L20.604,29.034L20.701,29.046L20.798,29.058L20.896,29.068L20.993,29.077L21.09,29.085L21.188,29.091L21.285,29.097L21.383,29.101L21.48,29.104L21.577,29.106L21.675,29.107L21.772,29.107L21.869,29.105L21.966,29.102L22.063,29.098L22.16,29.093L22.257,29.087L22.353,29.079L22.45,29.071L22.546,29.061L22.643,29.05L22.739,29.038L22.835,29.025L22.93,29.011L23.026,28.995L23.121,28.979L23.216,28.961L23.311,28.942L23.406,28.922L23.5,28.901L23.594,28.879L23.688,28.855L23.782,28.831L23.875,28.805L23.968,28.779L24.06,28.751L24.153,28.722L24.245,28.692L24.336,28.661L24.428,28.628L24.518,28.595L24.609,28.561L24.699,28.525L24.789,28.489L24.878,28.451L24.967,28.413L25.055,28.373L25.143,28.332L25.23,28.29L25.317,28.247L25.404,28.203L25.49,28.158L25.575,28.112L25.66,28.065L25.745,28.016L25.829,27.967L25.912,27.917L25.995,27.865L26.077,27.813L26.158,27.76L26.239,27.705L26.32,27.65L26.4,27.593L26.479,27.536L26.557,27.477L26.635,27.417L26.712,27.357L26.789,27.295L26.865,27.233L26.94,27.169L27.015,27.104L27.088,27.039L27.161,26.972L27.234,26.905L27.305,26.836L27.376,26.766L27.446,26.696L27.516,26.624L27.584,26.552L27.652,26.478L27.719,26.404L27.785,26.328L27.85,26.252L27.915,26.174L27.978,26.096L28.041,26.017L28.103,25.936L28.164,25.855L28.224,25.773L28.283,25.69L28.342,25.605L28.399,25.52L28.455,25.434L28.511,25.347L28.566,25.259L28.619,25.17L28.672,25.08L28.723,24.99L28.774,24.899L28.823,24.808L28.87,24.716L28.916,24.624L28.962,24.532L29.005,24.439L29.048,24.346L29.089,24.253L29.129,24.16L29.167,24.066L29.205,23.972L29.241,23.878L29.276,23.783L29.309,23.688L29.341,23.593L29.373,23.498L29.402,23.403L29.431,23.307L29.458,23.211L29.484,23.115L29.509,23.019L29.533,22.923L29.555,22.826L29.576,22.73L29.596,22.633L29.615,22.536L29.632,22.439L29.649,22.342L29.664,22.245L29.678,22.148L29.69,22.051L29.702,21.953L29.712,21.856L29.721,21.759L29.729,21.661L29.735,21.564L29.741,21.467L29.745,21.369L29.748,21.272L29.75,21.174L29.751,21.077L29.751,20.98L29.749,20.883L29.746,20.786L29.742,20.689L29.737,20.592L29.731,20.495L29.723,20.398L29.715,20.302L29.705,20.205L29.694,20.109L29.682,20.013L29.669,19.917L29.655,19.821L29.639,19.726L29.623,19.63L29.605,19.535L29.586,19.441L29.566,19.346L29.545,19.252L29.523,19.157L29.499,19.064L29.475,18.97L29.449,18.877L29.422,18.784L29.395,18.691L29.366,18.599L29.336,18.507L29.305,18.415L29.272,18.324L29.239,18.233L29.205,18.143L29.169,18.053L29.133,17.963L29.095,17.874L29.057,17.785L29.017,17.697L28.976,17.609L28.934,17.521L28.891,17.434L28.847,17.348L28.802,17.262L28.756,17.176L28.709,17.092L28.66,17.007L28.611,16.923L28.561,16.84L28.509,16.757L28.457,16.675L28.404,16.593L28.349,16.512L28.294,16.432L28.237,16.352L28.18,16.273L28.121,16.194L28.061,16.116L28.001,16.039L27.939,15.963L27.877,15.887L27.813,15.812L27.748,15.737L27.683,15.663L27.616,15.59L27.549,15.518L27.48,15.446L27.41,15.376L27.34,15.305L27.268,15.236L27.196,15.168L27.122,15.1L27.048,15.033L26.972,14.967L26.896,14.901L26.818,14.837L26.74,14.773L26.661,14.711L26.58,14.649L26.499,14.588L26.417,14.528L26.334,14.468L26.249,14.41L26.164,14.353L26.078,14.296L25.991,14.241L25.903,14.186L25.814,14.132L25.724,14.08L25.634,14.028L25.543,13.978L25.452,13.929L25.36,13.882L25.268,13.835L25.176,13.79L25.083,13.747L24.99,13.704L24.897,13.663L24.804,13.623L24.71,13.584L24.616,13.547L24.522,13.511L24.427,13.476L24.332,13.443L24.237,13.41L24.142,13.379L24.047,13.349L23.951,13.321L23.855,13.294L23.759,13.267L23.663,13.243L23.567,13.219L23.47,13.197L23.374,13.175L23.277,13.156L23.18,13.137L23.083,13.119L22.986,13.103L22.889,13.088L22.792,13.074L22.695,13.062L22.597,13.05L22.5,13.04L22.403,13.031L22.305,13.023L22.208,13.016L22.111,13.011L22.013,13.007L21.916,13.003L21.818,13.001L21.721,13.001L21.624,13.001Z" style="fill:#fff;"/>
</svg>
