<?xml version="1.0" encoding="UTF-8" standalone="no"?>
<!DOCTYPE svg PUBLIC "-//W3C//DTD SVG 1.1//EN" "http://www.w3.org/Graphics/SVG/1.1/DTD/svg11.dtd">
<svg width="34px" height="34px" version="1.1" xmlns="http://www.w3.org/2000/svg" xmlns:xlink="http://www.w3.org/1999/xlink" xml:space="preserve" xmlns:serif="http://www.serif.com/" style="fill-rule:evenodd;clip-rule:evenodd;stroke-linecap:round;stroke-miterlimit:1.5;">
    <rect id="timingOff" x="0" y="0" width="34" height="33.971" style="fill:none;"/>
    <path d="M25.75,3L24,3L18,13.4L18,19.6L24,30L25.75,30L25.75,31.5L7.25,31.5L7.25,30L9,30L15,19.6L15,13.4L9,3L7.25,3L7.25,1.5L25.75,1.5L25.75,3Z" style="fill:none;stroke:#fff;stroke-width:1.5px;"/>
    <path d="M15.793,13.295L15.79,26.134L17.186,26.134L17.208,13.311C17.208,13.311 18.989,10.272 19.875,8.75L13.125,8.75L15.793,13.295Z" style="fill:#fff;"/>
    <path d="M16.5,25L22.565,30.75L10.435,30.75L16.5,25Z" style="fill:#f9f9f9;"/>
    <g>
        <path d="M15.996,10.065C15.992,10.065 15.994,10.059 15.989,10.065" style="fill:none;stroke:#8a7e53;stroke-width:0.3px;"/>
        <path d="M15.895,11.564C15.895,11.535 15.944,11.598 15.972,11.599" style="fill:none;stroke:#8a7e53;stroke-width:0.3px;"/>
        <path d="M17.221,11.794C17.236,11.794 17.243,11.783 17.249,11.77" style="fill:none;stroke:#8a7e53;stroke-width:0.3px;"/>
        <path d="M16.742,12.961C16.736,12.961 16.73,12.958 16.724,12.958" style="fill:none;stroke:#8a7e53;stroke-width:0.3px;"/>
        <path d="M16.275,14.186C16.276,14.186 16.277,14.186 16.278,14.186" style="fill:none;stroke:#8a7e53;stroke-width:0.3px;"/>
        <path d="M16.823,16.337C16.809,16.337 16.794,16.337 16.78,16.337" style="fill:none;stroke:#8a7e53;stroke-width:0.3px;"/>
        <path d="M16.421,17.538C16.421,17.538 16.421,17.538 16.421,17.538" style="fill:none;stroke:#8a7e53;stroke-width:0.3px;"/>
        <path d="M16.304,19.324C16.304,19.324 16.304,19.324 16.304,19.324" style="fill:none;stroke:#8a7e53;stroke-width:0.3px;"/>
        <path d="M16.755,19.964C16.755,19.966 16.755,19.968 16.755,19.97" style="fill:none;stroke:#8a7e53;stroke-width:0.3px;"/>
        <path d="M16.762,22.77C16.762,22.77 16.762,22.77 16.761,22.77" style="fill:none;stroke:#8a7e53;stroke-width:0.3px;"/>
        <path d="M16.504,23.004C16.496,23.004 16.488,23.005 16.48,23.004" style="fill:none;stroke:#8a7e53;stroke-width:0.3px;"/>
        <path d="M16.055,22.557C16.055,22.553 16.057,22.548 16.059,22.545" style="fill:none;stroke:#8a7e53;stroke-width:0.3px;"/>
        <path d="M16.304,25.323C16.304,25.323 16.304,25.323 16.304,25.322" style="fill:none;stroke:#8a7e53;stroke-width:0.3px;"/>
        <path d="M16.672,25.926C16.672,25.926 16.672,25.926 16.672,25.926" style="fill:none;stroke:#8a7e53;stroke-width:0.3px;"/>
        <path d="M15.852,26.58C15.855,26.58 15.862,26.597 15.863,26.599" style="fill:none;stroke:#8a7e53;stroke-width:0.3px;"/>
        <path d="M17.803,27.831C17.803,27.842 17.803,27.854 17.803,27.866" style="fill:none;stroke:#8a7e53;stroke-width:0.3px;"/>
        <path d="M15.576,28.506C15.581,28.506 15.591,28.523 15.595,28.527" style="fill:none;stroke:#8a7e53;stroke-width:0.3px;"/>
        <path d="M18.075,29.382C18.073,29.382 18.069,29.385 18.066,29.386" style="fill:none;stroke:#8a7e53;stroke-width:0.3px;"/>
        <path d="M14.687,29.944C14.687,29.954 14.687,29.964 14.687,29.974" style="fill:none;stroke:#8a7e53;stroke-width:0.3px;"/>
        <path d="M12.762,29.903C12.756,29.909 12.75,29.917 12.744,29.925" style="fill:none;stroke:#8a7e53;stroke-width:0.3px;"/>
        <path d="M19.769,30.464C19.763,30.464 19.757,30.447 19.756,30.443" style="fill:none;stroke:#8a7e53;stroke-width:0.3px;"/>
        <path d="M20.535,29.809C20.534,29.809 20.533,29.809 20.533,29.809" style="fill:none;stroke:#8a7e53;stroke-width:0.3px;"/>
        <path d="M21.753,30.688C21.754,30.688 21.756,30.688 21.757,30.688" style="fill:none;stroke:#8a7e53;stroke-width:0.3px;"/>
        <path d="M14.592,10.018C14.592,10.013 14.593,10.009 14.591,10.004" style="fill:none;stroke:#8a7e53;stroke-width:0.3px;"/>
        <path d="M18.026,10.561C18.026,10.561 18.027,10.561 18.027,10.562" style="fill:none;stroke:#8a7e53;stroke-width:0.3px;"/>
        <path d="M18.655,9.67C18.655,9.67 18.656,9.67 18.656,9.67" style="fill:none;stroke:#8a7e53;stroke-width:0.3px;"/>
        <path d="M17.391,9.508C17.391,9.508 17.391,9.508 17.391,9.508" style="fill:none;stroke:#8a7e53;stroke-width:0.3px;"/>
        <path d="M15.268,9.189C15.268,9.189 15.267,9.189 15.267,9.188" style="fill:none;stroke:#8a7e53;stroke-width:0.3px;"/>
        <path d="M16.15,15.587C16.151,15.588 16.152,15.589 16.148,15.589" style="fill:none;stroke:#8a7e53;stroke-width:0.3px;"/>
    </g>
</svg>
