<?xml version="1.0" encoding="UTF-8" standalone="no"?>
<!DOCTYPE svg PUBLIC "-//W3C//DTD SVG 1.1//EN" "http://www.w3.org/Graphics/SVG/1.1/DTD/svg11.dtd">
<svg width="34px" height="34px" version="1.1" xmlns="http://www.w3.org/2000/svg" xmlns:xlink="http://www.w3.org/1999/xlink" xml:space="preserve" xmlns:serif="http://www.serif.com/" style="fill-rule:evenodd;clip-rule:evenodd;stroke-linecap:round;stroke-miterlimit:1.5;">
    <rect id="titleOn" x="0" y="0" width="34" height="33.971" style="fill:none;"/>
    <clipPath id="_clip1">
        <rect x="0" y="0" width="34" height="33.971"/>
    </clipPath>
    <g clip-path="url(#_clip1)">
        <path d="M34,1.626C34,0.728 33.272,0 32.374,0L1.503,0C0.605,0 -0.123,0.728 -0.123,1.626L-0.123,32.374C-0.123,33.272 0.605,34 1.503,34L32.374,34C33.272,34 34,33.272 34,32.374L34,1.626Z" style="fill:#1d1d1d;"/>
        <path d="M2,32L2,2" style="fill:none;stroke:#fff;stroke-width:1px;stroke-dasharray:2,3,0,0;"/>
        <path d="M32,32L32,2" style="fill:none;stroke:#fff;stroke-width:1px;stroke-dasharray:2,3,0,0;"/>
        <g transform="matrix(0.858785,0,0,0.798373,-1.3457,-273.839)">
            <text x="5.61px" y="352.608px" style="font-family:'ArialMT', 'Arial', sans-serif;font-size:9.08px;fill:#ff1900;">W<tspan x="14.017px 17.041px " y="352.608px 352.608px ">ra</tspan>p &amp;</text>
            <text x="6.287px" y="361.985px" style="font-family:'ArialMT', 'Arial', sans-serif;font-size:9.08px;fill:#ff1900;">Format</text>
            <text x="7.967px" y="371.363px" style="font-family:'ArialMT', 'Arial', sans-serif;font-size:9.08px;fill:#ff1900;">T<tspan x="13.177px 15.194px " y="371.363px 371.363px ">it</tspan>le &amp;</text>
            <text x="-2.045px" y="380.74px" style="font-family:'ArialMT', 'Arial', sans-serif;font-size:9.08px;fill:#ff1900;">Description</text>
        </g>
    </g>
</svg>
