<?xml version="1.0" encoding="UTF-8" standalone="no"?>
<!DOCTYPE svg PUBLIC "-//W3C//DTD SVG 1.1//EN" "http://www.w3.org/Graphics/SVG/1.1/DTD/svg11.dtd">
<svg width="34px" height="34px" version="1.1" xmlns="http://www.w3.org/2000/svg" xmlns:xlink="http://www.w3.org/1999/xlink" xml:space="preserve" xmlns:serif="http://www.serif.com/" style="fill-rule:evenodd;clip-rule:evenodd;stroke-linejoin:round;stroke-miterlimit:1.41421;">
    <rect id="wrap-width-off" x="0" y="0" width="34" height="33.971" style="fill:none;"/>
    <path id="Align-Justify-Icon" serif:id="Align Justify Icon" d="M27.5,24.425L6.5,24.425C5.672,24.425 5,23.882 5,23.213C5,22.544 5.672,22.001 6.5,22.001L27.5,22.001C28.328,22.001 29,22.544 29,23.213C29,23.882 28.328,24.425 27.5,24.425ZM27.5,19.578L6.5,19.578C5.672,19.578 5,19.036 5,18.367C5,17.698 5.672,17.155 6.5,17.155L27.5,17.155C28.328,17.155 29,17.698 29,18.367C29,19.036 28.328,19.578 27.5,19.578ZM27.5,14.732L6.5,14.732C5.672,14.732 5,14.189 5,13.521C5,12.851 5.672,12.309 6.5,12.309L27.5,12.309C28.328,12.309 29,12.851 29,13.521C29,14.189 28.328,14.732 27.5,14.732ZM6.5,26.848L27.5,26.848C28.328,26.848 29,27.39 29,28.059C29,28.728 28.328,29.271 27.5,29.271L6.5,29.271C5.672,29.271 5,28.728 5,28.059C5,27.39 5.672,26.848 6.5,26.848Z" style="fill:#fff;"/>
    <text x="12.703px" y="9.451px" style="font-family:'ArialMT', 'Arial', sans-serif;font-size:11.981px;fill:#fff;">w</text>
</svg>
